<svg xmlns="http://www.w3.org/2000/svg" xmlns:xlink="http://www.w3.org/1999/xlink" width="40" zoomAndPan="magnify" viewBox="0 0 30 30.000001" height="40" preserveAspectRatio="xMidYMid meet" version="1.0"><defs><clipPath id="aeabe1d15f"><path d="M 4 3 L 26 3 L 26 26 L 4 26 Z M 4 3 " clip-rule="nonzero"/></clipPath><clipPath id="f0808b9933"><path d="M 0.484375 9.328125 L 20.15625 -0.0117188 L 29.496094 19.65625 L 9.824219 28.996094 Z M 0.484375 9.328125 " clip-rule="nonzero"/></clipPath><clipPath id="6fd16e4625"><path d="M 0.484375 9.328125 L 20.15625 -0.0117188 L 29.496094 19.65625 L 9.824219 28.996094 Z M 0.484375 9.328125 " clip-rule="nonzero"/></clipPath><clipPath id="d2e47883d5"><path d="M 0.484375 9.328125 L 20.15625 -0.0117188 L 29.496094 19.65625 L 9.824219 28.996094 Z M 0.484375 9.328125 " clip-rule="nonzero"/></clipPath><clipPath id="f5f49bbc41"><path d="M 5 4 L 25 4 L 25 25 L 5 25 Z M 5 4 " clip-rule="nonzero"/></clipPath><clipPath id="bc5018d1ea"><path d="M 0.484375 9.328125 L 20.15625 -0.0117188 L 29.496094 19.65625 L 9.824219 28.996094 Z M 0.484375 9.328125 " clip-rule="nonzero"/></clipPath><clipPath id="5528f8be6b"><path d="M 0.484375 9.328125 L 20.15625 -0.0117188 L 29.496094 19.65625 L 9.824219 28.996094 Z M 0.484375 9.328125 " clip-rule="nonzero"/></clipPath><clipPath id="23694b30eb"><path d="M 0.484375 9.328125 L 20.15625 -0.0117188 L 29.496094 19.65625 L 9.824219 28.996094 Z M 0.484375 9.328125 " clip-rule="nonzero"/></clipPath><clipPath id="39312ff311"><path d="M 9 11 L 14 11 L 14 17 L 9 17 Z M 9 11 " clip-rule="nonzero"/></clipPath><clipPath id="3777bb0663"><path d="M 0.484375 9.328125 L 20.15625 -0.0117188 L 29.496094 19.65625 L 9.824219 28.996094 Z M 0.484375 9.328125 " clip-rule="nonzero"/></clipPath><clipPath id="57c869c889"><path d="M 0.484375 9.328125 L 20.15625 -0.0117188 L 29.496094 19.65625 L 9.824219 28.996094 Z M 0.484375 9.328125 " clip-rule="nonzero"/></clipPath><clipPath id="0176e0272b"><path d="M 0.484375 9.328125 L 20.15625 -0.0117188 L 29.496094 19.65625 L 9.824219 28.996094 Z M 0.484375 9.328125 " clip-rule="nonzero"/></clipPath><clipPath id="ee31fd1fe2"><path d="M 14 8 L 19 8 L 19 14 L 14 14 Z M 14 8 " clip-rule="nonzero"/></clipPath><clipPath id="7189998c77"><path d="M 0.484375 9.328125 L 20.15625 -0.0117188 L 29.496094 19.65625 L 9.824219 28.996094 Z M 0.484375 9.328125 " clip-rule="nonzero"/></clipPath><clipPath id="5112b3400e"><path d="M 0.484375 9.328125 L 20.15625 -0.0117188 L 29.496094 19.65625 L 9.824219 28.996094 Z M 0.484375 9.328125 " clip-rule="nonzero"/></clipPath><clipPath id="467dab02b4"><path d="M 0.484375 9.328125 L 20.15625 -0.0117188 L 29.496094 19.65625 L 9.824219 28.996094 Z M 0.484375 9.328125 " clip-rule="nonzero"/></clipPath><clipPath id="620b9b3277"><path d="M 8 12 L 23 12 L 23 22 L 8 22 Z M 8 12 " clip-rule="nonzero"/></clipPath><clipPath id="17b7dd2606"><path d="M 0.484375 9.328125 L 20.15625 -0.0117188 L 29.496094 19.65625 L 9.824219 28.996094 Z M 0.484375 9.328125 " clip-rule="nonzero"/></clipPath><clipPath id="a4205b6702"><path d="M 0.484375 9.328125 L 20.15625 -0.0117188 L 29.496094 19.65625 L 9.824219 28.996094 Z M 0.484375 9.328125 " clip-rule="nonzero"/></clipPath><clipPath id="f84c70d55f"><path d="M 0.484375 9.328125 L 20.15625 -0.0117188 L 29.496094 19.65625 L 9.824219 28.996094 Z M 0.484375 9.328125 " clip-rule="nonzero"/></clipPath><clipPath id="f93c5d9daa"><path d="M 10 11 L 12 11 L 12 13 L 10 13 Z M 10 11 " clip-rule="nonzero"/></clipPath><clipPath id="1fea7c594b"><path d="M 0.484375 9.328125 L 20.15625 -0.0117188 L 29.496094 19.65625 L 9.824219 28.996094 Z M 0.484375 9.328125 " clip-rule="nonzero"/></clipPath><clipPath id="a326ac531f"><path d="M 0.484375 9.328125 L 20.15625 -0.0117188 L 29.496094 19.65625 L 9.824219 28.996094 Z M 0.484375 9.328125 " clip-rule="nonzero"/></clipPath><clipPath id="2ca62cabbe"><path d="M 0.484375 9.328125 L 20.15625 -0.0117188 L 29.496094 19.65625 L 9.824219 28.996094 Z M 0.484375 9.328125 " clip-rule="nonzero"/></clipPath><clipPath id="bfd2446c9f"><path d="M 15 9 L 17 9 L 17 11 L 15 11 Z M 15 9 " clip-rule="nonzero"/></clipPath><clipPath id="7227e97a07"><path d="M 0.484375 9.328125 L 20.15625 -0.0117188 L 29.496094 19.65625 L 9.824219 28.996094 Z M 0.484375 9.328125 " clip-rule="nonzero"/></clipPath><clipPath id="a7bf4344ba"><path d="M 0.484375 9.328125 L 20.15625 -0.0117188 L 29.496094 19.65625 L 9.824219 28.996094 Z M 0.484375 9.328125 " clip-rule="nonzero"/></clipPath><clipPath id="cb28256bf3"><path d="M 0.484375 9.328125 L 20.15625 -0.0117188 L 29.496094 19.65625 L 9.824219 28.996094 Z M 0.484375 9.328125 " clip-rule="nonzero"/></clipPath><clipPath id="7c40448ba0"><path d="M 4 3 L 26 3 L 26 26 L 4 26 Z M 4 3 " clip-rule="nonzero"/></clipPath><clipPath id="09d7bb0e31"><path d="M 0.484375 9.328125 L 20.15625 -0.0117188 L 29.496094 19.65625 L 9.824219 28.996094 Z M 0.484375 9.328125 " clip-rule="nonzero"/></clipPath><clipPath id="2401514c50"><path d="M 0.484375 9.328125 L 20.15625 -0.0117188 L 29.496094 19.65625 L 9.824219 28.996094 Z M 0.484375 9.328125 " clip-rule="nonzero"/></clipPath><clipPath id="a6a506ea08"><path d="M 0.484375 9.328125 L 20.15625 -0.0117188 L 29.496094 19.65625 L 9.824219 28.996094 Z M 0.484375 9.328125 " clip-rule="nonzero"/></clipPath><clipPath id="e8af47bc30"><path d="M 5 4 L 25 4 L 25 25 L 5 25 Z M 5 4 " clip-rule="nonzero"/></clipPath><clipPath id="86b53be187"><path d="M 0.484375 9.328125 L 20.15625 -0.0117188 L 29.496094 19.65625 L 9.824219 28.996094 Z M 0.484375 9.328125 " clip-rule="nonzero"/></clipPath><clipPath id="0974cbae7c"><path d="M 0.484375 9.328125 L 20.15625 -0.0117188 L 29.496094 19.65625 L 9.824219 28.996094 Z M 0.484375 9.328125 " clip-rule="nonzero"/></clipPath><clipPath id="6a22cd7842"><path d="M 0.484375 9.328125 L 20.15625 -0.0117188 L 29.496094 19.65625 L 9.824219 28.996094 Z M 0.484375 9.328125 " clip-rule="nonzero"/></clipPath><clipPath id="ca1d338023"><path d="M 9 11 L 14 11 L 14 17 L 9 17 Z M 9 11 " clip-rule="nonzero"/></clipPath><clipPath id="c07ef419ee"><path d="M 0.484375 9.328125 L 20.15625 -0.0117188 L 29.496094 19.65625 L 9.824219 28.996094 Z M 0.484375 9.328125 " clip-rule="nonzero"/></clipPath><clipPath id="3dd48ca398"><path d="M 0.484375 9.328125 L 20.15625 -0.0117188 L 29.496094 19.65625 L 9.824219 28.996094 Z M 0.484375 9.328125 " clip-rule="nonzero"/></clipPath><clipPath id="05aa73b68b"><path d="M 0.484375 9.328125 L 20.15625 -0.0117188 L 29.496094 19.65625 L 9.824219 28.996094 Z M 0.484375 9.328125 " clip-rule="nonzero"/></clipPath><clipPath id="15935e590d"><path d="M 14 8 L 19 8 L 19 14 L 14 14 Z M 14 8 " clip-rule="nonzero"/></clipPath><clipPath id="8d0ff4bde0"><path d="M 0.484375 9.328125 L 20.15625 -0.0117188 L 29.496094 19.65625 L 9.824219 28.996094 Z M 0.484375 9.328125 " clip-rule="nonzero"/></clipPath><clipPath id="7ce9c6ba34"><path d="M 0.484375 9.328125 L 20.15625 -0.0117188 L 29.496094 19.65625 L 9.824219 28.996094 Z M 0.484375 9.328125 " clip-rule="nonzero"/></clipPath><clipPath id="3000ab5392"><path d="M 0.484375 9.328125 L 20.15625 -0.0117188 L 29.496094 19.65625 L 9.824219 28.996094 Z M 0.484375 9.328125 " clip-rule="nonzero"/></clipPath><clipPath id="79ebdd219a"><path d="M 8 12 L 23 12 L 23 22 L 8 22 Z M 8 12 " clip-rule="nonzero"/></clipPath><clipPath id="578f47cac3"><path d="M 0.484375 9.328125 L 20.15625 -0.0117188 L 29.496094 19.65625 L 9.824219 28.996094 Z M 0.484375 9.328125 " clip-rule="nonzero"/></clipPath><clipPath id="2cc95304b5"><path d="M 0.484375 9.328125 L 20.15625 -0.0117188 L 29.496094 19.65625 L 9.824219 28.996094 Z M 0.484375 9.328125 " clip-rule="nonzero"/></clipPath><clipPath id="ad7473102b"><path d="M 0.484375 9.328125 L 20.15625 -0.0117188 L 29.496094 19.65625 L 9.824219 28.996094 Z M 0.484375 9.328125 " clip-rule="nonzero"/></clipPath><clipPath id="3bf7158107"><path d="M 10 11 L 12 11 L 12 13 L 10 13 Z M 10 11 " clip-rule="nonzero"/></clipPath><clipPath id="4265cbe194"><path d="M 0.484375 9.328125 L 20.15625 -0.0117188 L 29.496094 19.65625 L 9.824219 28.996094 Z M 0.484375 9.328125 " clip-rule="nonzero"/></clipPath><clipPath id="256320b70c"><path d="M 0.484375 9.328125 L 20.15625 -0.0117188 L 29.496094 19.65625 L 9.824219 28.996094 Z M 0.484375 9.328125 " clip-rule="nonzero"/></clipPath><clipPath id="01a342f0e6"><path d="M 0.484375 9.328125 L 20.15625 -0.0117188 L 29.496094 19.65625 L 9.824219 28.996094 Z M 0.484375 9.328125 " clip-rule="nonzero"/></clipPath><clipPath id="64d9e3bd49"><path d="M 15 9 L 17 9 L 17 11 L 15 11 Z M 15 9 " clip-rule="nonzero"/></clipPath><clipPath id="1cdf4ff62e"><path d="M 0.484375 9.328125 L 20.15625 -0.0117188 L 29.496094 19.65625 L 9.824219 28.996094 Z M 0.484375 9.328125 " clip-rule="nonzero"/></clipPath><clipPath id="524a9adf6d"><path d="M 0.484375 9.328125 L 20.15625 -0.0117188 L 29.496094 19.65625 L 9.824219 28.996094 Z M 0.484375 9.328125 " clip-rule="nonzero"/></clipPath><clipPath id="87f07ba6be"><path d="M 0.484375 9.328125 L 20.15625 -0.0117188 L 29.496094 19.65625 L 9.824219 28.996094 Z M 0.484375 9.328125 " clip-rule="nonzero"/></clipPath></defs><g clip-path="url(#aeabe1d15f)"><g clip-path="url(#f0808b9933)"><g clip-path="url(#6fd16e4625)"><g clip-path="url(#d2e47883d5)"><path fill="#ffcc00" d="M 10.320312 4.648438 C 15.753906 2.070312 22.246094 4.382812 24.824219 9.8125 C 27.402344 15.242188 25.089844 21.738281 19.660156 24.316406 C 14.230469 26.894531 7.738281 24.582031 5.15625 19.152344 C 2.578125 13.722656 4.890625 7.226562 10.320312 4.648438 " fill-opacity="1" fill-rule="evenodd"/></g></g></g></g><g clip-path="url(#f5f49bbc41)"><g clip-path="url(#bc5018d1ea)"><g clip-path="url(#5528f8be6b)"><g clip-path="url(#23694b30eb)"><path fill="#000000" d="M 10.722656 5.496094 C 13.207031 4.316406 15.929688 4.257812 18.328125 5.109375 C 20.726562 5.964844 22.800781 7.734375 23.976562 10.214844 C 25.15625 12.695312 25.21875 15.421875 24.363281 17.820312 C 23.507812 20.21875 21.738281 22.289062 19.257812 23.46875 C 16.777344 24.648438 14.050781 24.707031 11.652344 23.855469 C 9.253906 23 7.183594 21.230469 6.003906 18.75 C 4.828125 16.269531 4.765625 13.542969 5.621094 11.144531 C 6.472656 8.746094 8.242188 6.671875 10.722656 5.496094 Z M 18.125 5.691406 C 15.871094 4.890625 13.316406 4.945312 10.988281 6.050781 C 8.660156 7.15625 7 9.101562 6.199219 11.351562 C 5.398438 13.601562 5.453125 16.15625 6.558594 18.484375 C 7.664062 20.8125 9.609375 22.472656 11.859375 23.273438 C 14.109375 24.074219 16.667969 24.019531 18.996094 22.914062 C 21.324219 21.808594 22.984375 19.863281 23.785156 17.613281 C 24.585938 15.363281 24.527344 12.808594 23.421875 10.480469 C 22.316406 8.152344 20.371094 6.492188 18.125 5.691406 " fill-opacity="1" fill-rule="nonzero"/></g></g></g></g><g clip-path="url(#39312ff311)"><g clip-path="url(#3777bb0663)"><g clip-path="url(#57c869c889)"><g clip-path="url(#0176e0272b)"><path fill="#000000" d="M 10.222656 11.121094 C 10.921875 10.792969 12.007812 11.613281 12.644531 12.960938 C 13.285156 14.304688 13.234375 15.664062 12.539062 15.996094 C 11.839844 16.328125 10.757812 15.503906 10.117188 14.160156 C 9.480469 12.8125 9.527344 11.453125 10.222656 11.121094 " fill-opacity="1" fill-rule="evenodd"/></g></g></g></g><g clip-path="url(#ee31fd1fe2)"><g clip-path="url(#7189998c77)"><g clip-path="url(#5112b3400e)"><g clip-path="url(#467dab02b4)"><path fill="#000000" d="M 15.195312 8.761719 C 15.894531 8.429688 16.976562 9.253906 17.617188 10.597656 C 18.257812 11.945312 18.207031 13.304688 17.511719 13.636719 C 16.8125 13.964844 15.726562 13.144531 15.089844 11.796875 C 14.449219 10.453125 14.5 9.09375 15.195312 8.761719 " fill-opacity="1" fill-rule="evenodd"/></g></g></g></g><g clip-path="url(#620b9b3277)"><g clip-path="url(#17b7dd2606)"><g clip-path="url(#a4205b6702)"><g clip-path="url(#f84c70d55f)"><path fill="#000000" d="M 21.773438 13.09375 C 22.082031 14.605469 21.867188 16.152344 21.21875 17.5 C 20.554688 18.867188 19.4375 20.03125 17.960938 20.734375 C 16.480469 21.4375 14.875 21.566406 13.394531 21.214844 C 11.941406 20.867188 10.605469 20.054688 9.628906 18.859375 C 9.515625 18.882812 9.394531 18.878906 9.28125 18.851562 C 9.105469 18.808594 8.945312 18.710938 8.832031 18.5625 C 8.75 18.457031 8.769531 18.308594 8.875 18.230469 C 8.976562 18.152344 9.125 18.171875 9.207031 18.273438 C 9.253906 18.335938 9.320312 18.375 9.390625 18.394531 C 9.464844 18.410156 9.539062 18.402344 9.613281 18.367188 C 9.683594 18.335938 9.738281 18.28125 9.769531 18.214844 C 9.800781 18.148438 9.8125 18.070312 9.792969 17.996094 C 9.765625 17.867188 9.84375 17.738281 9.972656 17.710938 C 10.097656 17.679688 10.226562 17.757812 10.253906 17.886719 C 10.296875 18.066406 10.273438 18.257812 10.195312 18.417969 C 10.15625 18.496094 10.109375 18.566406 10.050781 18.625 C 10.953125 19.703125 12.175781 20.4375 13.503906 20.753906 C 14.882812 21.082031 16.375 20.960938 17.757812 20.304688 C 19.136719 19.648438 20.175781 18.570312 20.792969 17.296875 C 21.386719 16.066406 21.589844 14.65625 21.324219 13.273438 C 21.238281 13.28125 21.15625 13.273438 21.074219 13.253906 C 20.898438 13.210938 20.738281 13.113281 20.621094 12.960938 C 20.542969 12.859375 20.5625 12.710938 20.664062 12.632812 C 20.769531 12.550781 20.917969 12.570312 20.996094 12.675781 C 21.042969 12.734375 21.109375 12.777344 21.183594 12.792969 C 21.253906 12.8125 21.332031 12.804688 21.402344 12.769531 C 21.476562 12.734375 21.527344 12.679688 21.5625 12.617188 C 21.59375 12.546875 21.601562 12.472656 21.585938 12.394531 C 21.554688 12.269531 21.636719 12.140625 21.761719 12.109375 C 21.890625 12.082031 22.015625 12.160156 22.046875 12.285156 C 22.089844 12.46875 22.066406 12.660156 21.984375 12.820312 C 21.9375 12.925781 21.863281 13.019531 21.773438 13.09375 " fill-opacity="1" fill-rule="nonzero"/></g></g></g></g><g clip-path="url(#f93c5d9daa)"><g clip-path="url(#1fea7c594b)"><g clip-path="url(#a326ac531f)"><g clip-path="url(#2ca62cabbe)"><path fill="#ffffff" d="M 10.792969 11.535156 C 10.964844 11.453125 11.230469 11.65625 11.386719 11.984375 C 11.542969 12.3125 11.53125 12.648438 11.359375 12.726562 C 11.1875 12.808594 10.921875 12.605469 10.769531 12.277344 C 10.609375 11.949219 10.621094 11.617188 10.792969 11.535156 " fill-opacity="1" fill-rule="evenodd"/></g></g></g></g><g clip-path="url(#bfd2446c9f)"><g clip-path="url(#7227e97a07)"><g clip-path="url(#a7bf4344ba)"><g clip-path="url(#cb28256bf3)"><path fill="#ffffff" d="M 15.847656 9.136719 C 16.015625 9.054688 16.28125 9.257812 16.4375 9.585938 C 16.59375 9.914062 16.582031 10.246094 16.414062 10.328125 C 16.242188 10.410156 15.976562 10.207031 15.820312 9.878906 C 15.664062 9.550781 15.675781 9.214844 15.847656 9.136719 " fill-opacity="1" fill-rule="evenodd"/></g></g></g></g><g clip-path="url(#7c40448ba0)"><g clip-path="url(#09d7bb0e31)"><g clip-path="url(#2401514c50)"><g clip-path="url(#a6a506ea08)"><path fill="#ffcc00" d="M 10.320312 4.648438 C 15.753906 2.070312 22.246094 4.382812 24.824219 9.8125 C 27.402344 15.242188 25.089844 21.738281 19.660156 24.316406 C 14.230469 26.894531 7.738281 24.582031 5.15625 19.152344 C 2.578125 13.722656 4.890625 7.226562 10.320312 4.648438 " fill-opacity="1" fill-rule="evenodd"/></g></g></g></g><g clip-path="url(#e8af47bc30)"><g clip-path="url(#86b53be187)"><g clip-path="url(#0974cbae7c)"><g clip-path="url(#6a22cd7842)"><path fill="#000000" d="M 10.722656 5.496094 C 13.207031 4.316406 15.929688 4.257812 18.328125 5.109375 C 20.726562 5.964844 22.800781 7.734375 23.976562 10.214844 C 25.15625 12.695312 25.21875 15.421875 24.363281 17.820312 C 23.507812 20.21875 21.738281 22.289062 19.257812 23.46875 C 16.777344 24.648438 14.050781 24.707031 11.652344 23.855469 C 9.253906 23 7.183594 21.230469 6.003906 18.75 C 4.828125 16.269531 4.765625 13.542969 5.621094 11.144531 C 6.472656 8.746094 8.242188 6.671875 10.722656 5.496094 Z M 18.125 5.691406 C 15.871094 4.890625 13.316406 4.945312 10.988281 6.050781 C 8.660156 7.15625 7 9.101562 6.199219 11.351562 C 5.398438 13.601562 5.453125 16.15625 6.558594 18.484375 C 7.664062 20.8125 9.609375 22.472656 11.859375 23.273438 C 14.109375 24.074219 16.667969 24.019531 18.996094 22.914062 C 21.324219 21.808594 22.984375 19.863281 23.785156 17.613281 C 24.585938 15.363281 24.527344 12.808594 23.421875 10.480469 C 22.316406 8.152344 20.371094 6.492188 18.125 5.691406 " fill-opacity="1" fill-rule="nonzero"/></g></g></g></g><g clip-path="url(#ca1d338023)"><g clip-path="url(#c07ef419ee)"><g clip-path="url(#3dd48ca398)"><g clip-path="url(#05aa73b68b)"><path fill="#000000" d="M 10.222656 11.121094 C 10.921875 10.792969 12.007812 11.613281 12.644531 12.960938 C 13.285156 14.304688 13.234375 15.664062 12.539062 15.996094 C 11.839844 16.328125 10.757812 15.503906 10.117188 14.160156 C 9.480469 12.8125 9.527344 11.453125 10.222656 11.121094 " fill-opacity="1" fill-rule="evenodd"/></g></g></g></g><g clip-path="url(#15935e590d)"><g clip-path="url(#8d0ff4bde0)"><g clip-path="url(#7ce9c6ba34)"><g clip-path="url(#3000ab5392)"><path fill="#000000" d="M 15.195312 8.761719 C 15.894531 8.429688 16.976562 9.253906 17.617188 10.597656 C 18.257812 11.945312 18.207031 13.304688 17.511719 13.636719 C 16.8125 13.964844 15.726562 13.144531 15.089844 11.796875 C 14.449219 10.453125 14.5 9.09375 15.195312 8.761719 " fill-opacity="1" fill-rule="evenodd"/></g></g></g></g><g clip-path="url(#79ebdd219a)"><g clip-path="url(#578f47cac3)"><g clip-path="url(#2cc95304b5)"><g clip-path="url(#ad7473102b)"><path fill="#000000" d="M 21.773438 13.09375 C 22.082031 14.605469 21.867188 16.152344 21.21875 17.5 C 20.554688 18.867188 19.4375 20.03125 17.960938 20.734375 C 16.480469 21.4375 14.875 21.566406 13.394531 21.214844 C 11.941406 20.867188 10.605469 20.054688 9.628906 18.859375 C 9.515625 18.882812 9.394531 18.878906 9.28125 18.851562 C 9.105469 18.808594 8.945312 18.710938 8.832031 18.5625 C 8.75 18.457031 8.769531 18.308594 8.875 18.230469 C 8.976562 18.152344 9.125 18.171875 9.207031 18.273438 C 9.253906 18.335938 9.320312 18.375 9.390625 18.394531 C 9.464844 18.410156 9.539062 18.402344 9.613281 18.367188 C 9.683594 18.335938 9.738281 18.28125 9.769531 18.214844 C 9.800781 18.148438 9.8125 18.070312 9.792969 17.996094 C 9.765625 17.867188 9.84375 17.738281 9.972656 17.710938 C 10.097656 17.679688 10.226562 17.757812 10.253906 17.886719 C 10.296875 18.066406 10.273438 18.257812 10.195312 18.417969 C 10.15625 18.496094 10.109375 18.566406 10.050781 18.625 C 10.953125 19.703125 12.175781 20.4375 13.503906 20.753906 C 14.882812 21.082031 16.375 20.960938 17.757812 20.304688 C 19.136719 19.648438 20.175781 18.570312 20.792969 17.296875 C 21.386719 16.066406 21.589844 14.65625 21.324219 13.273438 C 21.238281 13.28125 21.15625 13.273438 21.074219 13.253906 C 20.898438 13.210938 20.738281 13.113281 20.621094 12.960938 C 20.542969 12.859375 20.5625 12.710938 20.664062 12.632812 C 20.769531 12.550781 20.917969 12.570312 20.996094 12.675781 C 21.042969 12.734375 21.109375 12.777344 21.183594 12.792969 C 21.253906 12.8125 21.332031 12.804688 21.402344 12.769531 C 21.476562 12.734375 21.527344 12.679688 21.5625 12.617188 C 21.59375 12.546875 21.601562 12.472656 21.585938 12.394531 C 21.554688 12.269531 21.636719 12.140625 21.761719 12.109375 C 21.890625 12.082031 22.015625 12.160156 22.046875 12.285156 C 22.089844 12.46875 22.066406 12.660156 21.984375 12.820312 C 21.9375 12.925781 21.863281 13.019531 21.773438 13.09375 " fill-opacity="1" fill-rule="nonzero"/></g></g></g></g><g clip-path="url(#3bf7158107)"><g clip-path="url(#4265cbe194)"><g clip-path="url(#256320b70c)"><g clip-path="url(#01a342f0e6)"><path fill="#ffffff" d="M 10.792969 11.535156 C 10.964844 11.453125 11.230469 11.65625 11.386719 11.984375 C 11.542969 12.3125 11.53125 12.648438 11.359375 12.726562 C 11.1875 12.808594 10.921875 12.605469 10.769531 12.277344 C 10.609375 11.949219 10.621094 11.617188 10.792969 11.535156 " fill-opacity="1" fill-rule="evenodd"/></g></g></g></g><g clip-path="url(#64d9e3bd49)"><g clip-path="url(#1cdf4ff62e)"><g clip-path="url(#524a9adf6d)"><g clip-path="url(#87f07ba6be)"><path fill="#ffffff" d="M 15.847656 9.136719 C 16.015625 9.054688 16.28125 9.257812 16.4375 9.585938 C 16.59375 9.914062 16.582031 10.246094 16.414062 10.328125 C 16.242188 10.410156 15.976562 10.207031 15.820312 9.878906 C 15.664062 9.550781 15.675781 9.214844 15.847656 9.136719 " fill-opacity="1" fill-rule="evenodd"/></g></g></g></g></svg>