<svg xmlns="http://www.w3.org/2000/svg" xmlns:xlink="http://www.w3.org/1999/xlink" width="891" zoomAndPan="magnify" viewBox="0 0 668.25 532.499983" height="710" preserveAspectRatio="xMidYMid meet" version="1.0"><defs><clipPath id="031b7aa464"><path d="M 88 68 L 393 68 L 393 464 L 88 464 Z M 88 68 " clip-rule="nonzero"/></clipPath><clipPath id="b9e6500cd0"><path d="M 304.046875 531.523438 L -0.125 395.078125 L 177.097656 -0.0078125 L 481.273438 136.4375 Z M 304.046875 531.523438 " clip-rule="nonzero"/></clipPath><clipPath id="dd0e1ea061"><path d="M 304.046875 531.523438 L -0.125 395.078125 L 177.097656 -0.0078125 L 481.273438 136.4375 Z M 304.046875 531.523438 " clip-rule="nonzero"/></clipPath><clipPath id="93bc3fe77d"><path d="M 122 145 L 357 145 L 357 388 L 122 388 Z M 122 145 " clip-rule="nonzero"/></clipPath><clipPath id="05b150229b"><path d="M 304.046875 531.523438 L -0.125 395.078125 L 177.097656 -0.0078125 L 481.273438 136.4375 Z M 304.046875 531.523438 " clip-rule="nonzero"/></clipPath><clipPath id="e2cce4ea22"><path d="M 304.046875 531.523438 L -0.125 395.078125 L 177.097656 -0.0078125 L 481.273438 136.4375 Z M 304.046875 531.523438 " clip-rule="nonzero"/></clipPath></defs><g clip-path="url(#031b7aa464)"><g clip-path="url(#b9e6500cd0)"><g clip-path="url(#dd0e1ea061)"><path fill="#d4ac50" d="M 152.027344 463.320312 L 230.425781 271.273438 L 88.613281 197.59375 L 237.945312 254.515625 L 329.246094 68.253906 L 250.84375 260.300781 L 392.660156 333.980469 L 243.328125 277.0625 Z M 152.027344 463.320312 " fill-opacity="1" fill-rule="nonzero"/></g></g></g><g clip-path="url(#93bc3fe77d)"><g clip-path="url(#05b150229b)"><g clip-path="url(#e2cce4ea22)"><path fill="#d4ac50" d="M 122.386719 326.925781 L 231.917969 263.792969 L 177.03125 145.457031 L 241.859375 258.65625 L 356.691406 205.78125 L 247.160156 268.914062 L 302.046875 387.25 L 237.222656 274.054688 Z M 122.386719 326.925781 " fill-opacity="1" fill-rule="nonzero"/></g></g></g></svg>