<svg xmlns="http://www.w3.org/2000/svg" xmlns:xlink="http://www.w3.org/1999/xlink" width="308" zoomAndPan="magnify" viewBox="0 0 230.87999 231" height="308" preserveAspectRatio="xMidYMid meet" version="1.0"><defs><filter x="0%" y="0%" width="100%" height="100%" id="66394e1767"><feColorMatrix values="0 0 0 0 1 0 0 0 0 1 0 0 0 0 1 0 0 0 1 0" color-interpolation-filters="sRGB"/></filter><clipPath id="c706eb6887"><path d="M 0 0.0585938 L 230.761719 0.0585938 L 230.761719 230.9375 L 0 230.9375 Z M 0 0.0585938 " clip-rule="nonzero"/></clipPath><mask id="a93f8adeeb"><g filter="url(#66394e1767)"><rect x="-23.087999" width="277.055988" fill="#000000" y="-23.1" height="277.2" fill-opacity="0.19"/></g></mask><clipPath id="76dadee516"><path d="M 0 0.0585938 L 230.128906 0.0585938 L 230.128906 230.191406 L 0 230.191406 Z M 0 0.0585938 " clip-rule="nonzero"/></clipPath><clipPath id="930faa1388"><rect x="0" width="231" y="0" height="231"/></clipPath></defs><g clip-path="url(#c706eb6887)"><g mask="url(#a93f8adeeb)"><g transform="matrix(1, 0, 0, 1, 0, -0.000000000000038733)"><g clip-path="url(#930faa1388)"><g clip-path="url(#76dadee516)"><path fill="#000000" d="M 212.945312 54.574219 C 212.957031 54.550781 212.964844 54.535156 212.96875 54.519531 C 213.109375 54.152344 212.921875 53.746094 212.558594 53.605469 C 212.480469 53.578125 212.410156 53.617188 212.332031 53.613281 C 191.886719 21.496094 155.996094 0.128906 115.183594 0.128906 C 89.011719 0.128906 64.863281 8.929688 45.5 23.699219 C 45.277344 23.742188 45.121094 23.878906 45.019531 24.078125 C 17.710938 45.148438 0.0703125 78.167969 0.0703125 115.25 C 0.0703125 178.722656 51.710938 230.359375 115.183594 230.359375 C 178.65625 230.359375 230.296875 178.71875 230.296875 115.25 C 230.296875 92.988281 223.929688 72.203125 212.945312 54.574219 Z M 210.433594 171.898438 C 203.875 175.847656 195.941406 179.292969 186.945312 182.167969 C 189.441406 171.113281 190.957031 160.644531 191.644531 150.734375 C 201.183594 147.574219 209.472656 143.78125 216.140625 139.488281 C 216.390625 147.324219 216.195312 154.863281 215.710938 161.925781 C 214.117188 165.34375 212.359375 168.675781 210.433594 171.898438 Z M 68.539062 214.992188 C 65.941406 212.351562 63.519531 209.648438 61.265625 206.890625 C 68.410156 208.839844 76.816406 210.71875 86.125 212.152344 C 88.78125 216.46875 91.871094 220.550781 95.457031 224.316406 C 86.039062 222.621094 77.039062 219.738281 68.601562 215.824219 C 68.753906 215.546875 68.765625 215.21875 68.539062 214.992188 Z M 66.382812 214.765625 C 59.410156 211.332031 52.859375 207.175781 46.804688 202.410156 C 50.183594 203.597656 54.285156 204.917969 58.964844 206.246094 C 61.25 209.148438 63.71875 211.988281 66.382812 214.765625 Z M 59.789062 205.007812 C 54.476562 198.21875 50.1875 191.101562 46.921875 183.660156 C 55.925781 186.488281 65.980469 188.738281 76.695312 190.363281 C 78.710938 197.492188 81.492188 204.273438 85.164062 210.566406 C 75.566406 209.042969 66.992188 207.03125 59.789062 205.007812 Z M 12.363281 135.761719 C 12.363281 145.042969 13.546875 154.835938 16.207031 165.105469 C 10.523438 153.855469 6.695312 141.527344 5.140625 128.507812 C 7.066406 131.035156 9.492188 133.449219 12.363281 135.761719 Z M 18.707031 168.886719 C 15.398438 157.632812 13.898438 146.964844 13.800781 136.875 C 20.0625 141.582031 28.21875 145.765625 37.84375 149.285156 C 38.164062 160.496094 40.359375 171.191406 44.394531 181.339844 C 34.167969 177.894531 25.40625 173.707031 18.707031 168.886719 Z M 19.898438 100.066406 C 26.257812 104.226562 34.246094 107.929688 43.445312 111.046875 C 40.226562 121.558594 38.167969 132.355469 37.835938 143.234375 C 37.792969 144.699219 37.792969 146.15625 37.808594 147.601562 C 28.09375 144.003906 19.914062 139.753906 13.777344 134.996094 C 13.867188 122.410156 16.152344 110.746094 19.898438 100.066406 Z M 14.652344 68.578125 C 17.039062 64.765625 19.636719 61.171875 22.390625 57.761719 C 24.84375 61.898438 28.90625 65.75 34.285156 69.234375 C 28.335938 77.800781 23.066406 87.378906 19.175781 97.921875 C 14.28125 94.507812 10.488281 90.800781 8.015625 86.863281 C 9.695312 80.527344 11.929688 74.414062 14.652344 68.578125 Z M 20.03125 58.425781 C 20.503906 57.636719 20.996094 56.867188 21.484375 56.09375 C 21.542969 56.207031 21.59375 56.324219 21.644531 56.4375 C 21.109375 57.09375 20.558594 57.75 20.03125 58.425781 Z M 57.398438 20.671875 C 57.589844 20.632812 57.832031 20.617188 58.246094 20.597656 C 59.222656 20.550781 58.382812 20.992188 58.246094 21.347656 C 58.117188 21.703125 57.1875 22.851562 56.609375 23.382812 C 56.035156 23.914062 55.636719 24.269531 55.238281 25.546875 C 54.84375 26.828125 55.238281 26.519531 55.636719 25.769531 C 56.035156 25.019531 56.875 24.402344 58.335938 23.292969 C 59.792969 22.191406 59.308594 22.761719 60.0625 22.410156 C 60.8125 22.054688 61.386719 21.703125 62.359375 21.171875 C 63.335938 20.640625 62.847656 20.820312 63.554688 20.019531 C 64.261719 19.226562 64.707031 19.316406 65.542969 18.648438 C 66.382812 17.988281 66.824219 17.898438 67.179688 17.542969 C 67.535156 17.195312 67.710938 17.054688 68.113281 16.480469 C 68.507812 15.90625 69.042969 15.824219 69.527344 15.113281 C 70.011719 14.402344 70.277344 14.402344 70.679688 13.871094 C 70.730469 13.804688 70.738281 13.753906 70.769531 13.695312 C 72.914062 12.753906 75.085938 11.859375 77.300781 11.050781 C 77.871094 12.121094 78.683594 13.148438 79.714844 14.128906 C 75.6875 15.917969 71.472656 17.953125 67.171875 20.242188 C 67.042969 20.269531 66.90625 20.300781 66.738281 20.328125 C 66.351562 20.398438 66.53125 20.371094 66.226562 20.738281 C 64.632812 21.601562 63.019531 22.503906 61.402344 23.445312 C 61.058594 23.542969 60.710938 23.875 60.195312 24.050781 C 59.660156 24.222656 59.574219 24.402344 59.042969 24.753906 C 59.003906 24.777344 59.023438 24.835938 58.996094 24.867188 C 55.570312 26.921875 52.140625 29.125 48.730469 31.519531 C 47.9375 30.363281 47.347656 29.171875 46.941406 27.964844 C 50.285156 25.34375 53.765625 22.898438 57.398438 20.671875 Z M 59.121094 26.425781 C 59.175781 26.699219 59.214844 26.960938 59.132812 27.140625 C 58.863281 27.761719 59.132812 27.140625 58.511719 27.226562 C 57.988281 27.304688 57.8125 27.445312 57.144531 27.648438 C 57.808594 27.234375 58.464844 26.824219 59.121094 26.425781 Z M 165.894531 18.863281 C 166.570312 19.546875 167.207031 20.148438 167.671875 20.328125 C 168.554688 20.683594 169.257812 21.214844 170.054688 21.832031 C 170.847656 22.457031 175.453125 28.027344 175.453125 28.027344 C 175.453125 28.027344 175.71875 31.742188 178.636719 32.535156 C 180.640625 33.085938 181.941406 33.628906 182.785156 34.117188 C 181.410156 35.53125 179.753906 36.890625 177.835938 38.179688 C 175.996094 36.300781 174.15625 34.523438 172.34375 32.871094 C 164.96875 26.171875 157.460938 20.902344 150.5 16.742188 C 151.746094 15.988281 152.855469 15.191406 153.789062 14.355469 C 157.90625 15.75 162.011719 17.257812 165.894531 18.863281 Z M 185.714844 34.746094 C 187.308594 34.304688 187.21875 34.835938 189.074219 35.988281 C 190.929688 37.140625 190.667969 36.609375 191.460938 38.644531 C 192.261719 40.679688 192.433594 39.265625 192.433594 41.914062 C 192.433594 44.570312 194.289062 46.246094 194.027344 48.015625 C 193.765625 49.785156 194.78125 50.9375 194.054688 52.441406 C 193.316406 53.945312 192.167969 54.476562 192.882812 55.359375 C 193.585938 56.246094 193.234375 56.066406 194.914062 56.425781 C 196.59375 56.773438 199.867188 57.570312 200.753906 58.277344 C 201.636719 58.984375 201.90625 60.226562 201.460938 60.84375 C 201.015625 61.460938 200.660156 61.371094 198.453125 62.878906 C 197.980469 63.195312 197.582031 63.410156 197.203125 63.609375 C 195.074219 59.976562 192.859375 56.5625 190.574219 53.378906 C 191.074219 53.089844 191.507812 52.707031 191.667969 52.210938 C 191.847656 51.675781 191.320312 52.027344 191.667969 51.089844 C 192.027344 50.144531 191.730469 50.910156 192.027344 50.144531 C 192.320312 49.375 192.375 49.023438 192.375 49.023438 C 192.375 49.023438 192.84375 48.605469 192.964844 48.371094 C 193.085938 48.136719 193.136719 48.023438 192.964844 47.253906 C 192.789062 46.484375 192.964844 46.71875 192.433594 46.132812 C 191.902344 45.542969 191.605469 45.308594 191.136719 45.132812 C 190.667969 44.953125 190.425781 44.835938 190.128906 44.78125 C 189.839844 44.71875 189.839844 44.953125 189.308594 44.601562 C 188.777344 44.25 188.632812 44.070312 187.996094 43.894531 C 187.363281 43.71875 187.425781 43.773438 186.652344 43.421875 C 185.882812 43.066406 185.59375 42.886719 185.296875 42.769531 C 185 42.65625 185.824219 43.363281 185 42.65625 C 184.179688 41.945312 184.417969 42.238281 184.179688 41.945312 C 183.9375 41.652344 184.113281 42.125 183.585938 41.238281 C 183.054688 40.351562 183.054688 40.351562 183.054688 40.351562 L 182.285156 39.941406 C 182.285156 39.941406 182.527344 39.59375 181.9375 39.703125 C 181.691406 39.75 181.40625 39.941406 181.050781 39.703125 C 180.699219 39.472656 180.519531 38.875 180.339844 39.113281 C 180.191406 39.320312 179.5625 39.507812 179.726562 40.160156 C 179.40625 39.824219 179.089844 39.484375 178.777344 39.152344 C 180.746094 37.820312 182.453125 36.414062 183.878906 34.949219 C 184.28125 35.316406 184.332031 35.136719 185.714844 34.746094 Z M 205 59.429688 C 204.644531 58.632812 204.644531 56.773438 206.238281 56.6875 C 207.359375 56.625 208.855469 57.386719 209.65625 57.84375 C 208.609375 59.4375 207.3125 60.992188 205.777344 62.492188 C 205.65625 60.484375 205.328125 60.175781 205 59.429688 Z M 206.519531 86.785156 C 206.625 87.792969 206.414062 88.953125 206.414062 89.679688 C 206.414062 90.480469 205.53125 91.449219 205.175781 93.132812 C 204.820312 94.8125 204.113281 93.929688 204.113281 97.292969 C 204.113281 98.964844 204.007812 101.515625 204.191406 104.003906 C 199.835938 106.125 195.019531 108.089844 189.785156 109.855469 C 187.800781 98.105469 184.671875 87.519531 180.902344 78.074219 C 187.667969 75.703125 193.601562 72.957031 198.519531 69.902344 C 199.042969 70.613281 199.46875 71.300781 199.6875 72.171875 C 199.957031 73.230469 200.308594 73.851562 200.933594 74.207031 C 201.070312 74.285156 201.195312 74.3125 201.328125 74.328125 C 203.277344 78.4375 205.011719 82.597656 206.519531 86.785156 Z M 152.402344 144.648438 C 152.21875 144.582031 152.0625 144.535156 151.839844 144.441406 C 150.335938 143.820312 149.980469 144.878906 149.980469 144.089844 C 149.980469 143.285156 149.980469 143.558594 149.539062 142.9375 C 149.089844 142.316406 148.296875 142.140625 147.148438 141.691406 C 145.996094 141.25 146.4375 141.609375 145.996094 141.609375 C 145.554688 141.609375 145.027344 141.871094 144.050781 141.078125 C 143.078125 140.285156 144.050781 141.078125 143.960938 140.816406 C 143.875 140.546875 144.40625 140.011719 144.40625 140.011719 C 144.40625 140.011719 144.40625 140.011719 143.875 140.011719 C 143.34375 140.011719 143.167969 139.664062 142.8125 139.308594 C 142.460938 138.949219 141.839844 138.417969 141.046875 138.417969 C 140.25 138.417969 140.601562 138.597656 139.894531 138.867188 C 139.1875 139.128906 136.625 139.128906 136.625 139.128906 C 136.625 139.128906 135.742188 139.128906 135.03125 139.128906 C 134.320312 139.128906 134.496094 139.128906 133.878906 139.128906 C 133.257812 139.128906 132.109375 138.867188 132.109375 138.867188 C 132.109375 138.867188 131.578125 138.511719 130.605469 138.164062 C 129.636719 137.8125 130.164062 137.632812 129.277344 137.542969 C 128.394531 137.453125 128.484375 138.164062 128.039062 138.777344 C 127.597656 139.398438 128.039062 138.777344 127.421875 139.128906 C 126.800781 139.484375 126.976562 140.105469 127.070312 140.371094 C 127.152344 140.636719 127.070312 141.429688 127.070312 141.429688 C 127.070312 141.429688 126.183594 141.785156 125.652344 141.519531 C 125.121094 141.253906 125.917969 139.222656 125.917969 138.507812 C 125.917969 137.808594 125.917969 138.507812 126 137.894531 C 126.09375 137.273438 126.800781 137.011719 126.710938 136.742188 C 126.628906 136.472656 125.296875 137.449219 124.945312 137.539062 C 124.589844 137.628906 123.527344 138.335938 122.203125 139.304688 C 120.871094 140.28125 121.402344 139.746094 120.695312 139.925781 C 119.988281 140.101562 119.988281 140.101562 119.375 140.984375 C 118.75 141.867188 119.019531 141.605469 118.75 141.785156 C 118.488281 141.957031 117.511719 144.085938 117.511719 144.085938 L 116.363281 143.734375 C 116.363281 143.734375 116.363281 143.734375 115.65625 143.019531 C 114.949219 142.316406 115.65625 141.074219 115.183594 140.546875 C 115.078125 140.433594 114.84375 140.433594 114.546875 140.488281 C 114.515625 135.960938 114.496094 131.414062 114.503906 126.847656 C 114.65625 126.902344 114.847656 126.957031 115.183594 127.050781 C 116.363281 127.367188 115.65625 127.273438 116.363281 127.367188 C 117.070312 127.457031 116.714844 128.070312 117.6875 127.367188 C 118.664062 126.65625 118.664062 127.101562 118.664062 126.65625 C 118.664062 126.214844 117.511719 125.417969 116.761719 125.777344 C 115.835938 126.207031 114.769531 125.511719 114.507812 125.777344 C 114.507812 124.476562 114.515625 123.171875 114.515625 121.871094 C 114.714844 121.878906 114.917969 121.878906 115.109375 121.878906 C 115.015625 122.011719 114.921875 122.121094 115.183594 122.324219 C 115.652344 122.679688 113.730469 122.414062 115.222656 123.207031 C 116.714844 124.003906 116.625 124.003906 117.6875 123.917969 C 118.75 123.828125 118.746094 124.351562 119.726562 123.960938 C 120.691406 123.566406 121.578125 123.03125 121.578125 123.03125 C 121.578125 123.03125 122.726562 122.855469 121.136719 122.414062 C 119.984375 122.089844 119.210938 122.089844 118.535156 121.886719 C 130.515625 121.8125 142.128906 121 153.054688 119.53125 C 153.207031 127.421875 153.007812 135.804688 152.402344 144.648438 Z M 102.03125 130.023438 C 101.328125 129.84375 97.34375 129.84375 96.460938 129.84375 C 95.578125 129.84375 96.640625 127.714844 96.726562 127.277344 C 96.816406 126.839844 97.082031 126.039062 97.261719 125.511719 C 97.441406 124.980469 97.699219 124.539062 97.964844 123.917969 C 98.230469 123.304688 98.136719 123.386719 98.414062 122.773438 C 98.675781 122.152344 98.851562 121.972656 98.9375 121.53125 C 98.957031 121.445312 98.972656 121.382812 98.988281 121.320312 C 103.621094 121.617188 108.335938 121.804688 113.113281 121.867188 C 113.082031 128.253906 113.097656 134.636719 113.144531 140.964844 C 112.253906 141.335938 111.3125 141.789062 110.882812 141.871094 C 110 142.050781 109.464844 141.960938 108.847656 141.871094 C 108.230469 141.789062 106.988281 141.078125 106.636719 140.726562 C 106.285156 140.371094 105.753906 139.925781 105.753906 139.925781 C 105.753906 139.925781 105.21875 139.128906 104.957031 138.777344 C 104.6875 138.417969 104.78125 138.25 104.605469 137.980469 C 104.425781 137.714844 104.6875 135.859375 104.6875 135.242188 C 104.6875 134.617188 105.308594 134.089844 105.222656 133.734375 C 105.132812 133.378906 102.742188 130.195312 102.03125 130.023438 Z M 92.480469 124.445312 C 92.035156 124.800781 91.507812 124.886719 90.355469 124.886719 C 89.207031 124.886719 88.496094 124.886719 87.792969 124.804688 C 87.085938 124.714844 86.820312 124.625 86.375 124.449219 C 85.933594 124.273438 84.425781 124.097656 83.457031 123.300781 C 82.484375 122.503906 83.457031 123.300781 83.105469 122.414062 C 82.75 121.53125 82.484375 121.171875 81.773438 120.46875 C 81.460938 120.152344 81.191406 119.839844 80.980469 119.539062 C 85.613281 120.164062 90.367188 120.664062 95.222656 121.046875 C 94.640625 121.320312 94.964844 121.433594 94.429688 121.703125 C 93.714844 122.054688 93.894531 122.410156 92.921875 124.09375 C 91.945312 125.777344 92.921875 124.09375 92.480469 124.445312 Z M 190.488281 53.09375 C 190.488281 53.09375 190.453125 53.132812 190.429688 53.167969 C 189.445312 51.808594 188.453125 50.480469 187.453125 49.199219 C 187.371094 48.824219 187.328125 48.675781 186.902344 48.496094 C 185.59375 46.839844 184.269531 45.238281 182.945312 43.71875 C 183.714844 43.929688 183.769531 43.820312 184.117188 44.070312 C 184.539062 44.363281 184.65625 45.011719 185.070312 45.25 C 185.480469 45.484375 186.1875 45.484375 186.777344 45.601562 C 187.371094 45.71875 187.371094 45.890625 187.605469 46.132812 C 187.839844 46.371094 187.984375 46.898438 188.003906 47.078125 C 188.015625 47.253906 188.136719 47.808594 188.308594 48.003906 C 188.488281 48.195312 188.316406 48.371094 188.785156 48.785156 C 189.253906 49.199219 189.136719 49.242188 189.789062 49.398438 C 190.4375 49.554688 190.4375 49.554688 190.4375 49.554688 C 190.4375 49.554688 190.554688 49.730469 190.4375 50.4375 C 190.3125 51.152344 190.488281 53.09375 190.488281 53.09375 Z M 183.59375 46.644531 C 183.273438 47.144531 182.917969 47.640625 183.179688 48.003906 C 183.535156 48.492188 183.238281 48.847656 183.886719 49.316406 C 184.539062 49.789062 184.425781 49.789062 184.710938 50.144531 C 185.007812 50.496094 184.480469 51.089844 185.066406 51.679688 C 185.65625 52.269531 185.597656 52.921875 186.417969 52.5625 C 187.246094 52.214844 186.78125 52.917969 187.277344 51.855469 C 187.339844 51.710938 187.417969 51.605469 187.484375 51.519531 C 190.617188 55.660156 193.445312 59.902344 195.980469 64.226562 C 195.398438 64.519531 195.132812 64.765625 195.257812 65.355469 C 195.472656 66.265625 196.707031 67.703125 197.574219 68.710938 C 192.765625 71.664062 186.941406 74.324219 180.324219 76.636719 C 176.222656 66.660156 171.433594 57.988281 166.558594 50.613281 C 165.605469 49.167969 164.640625 47.777344 163.675781 46.402344 C 169.054688 44.550781 173.726562 42.375 177.570312 39.953125 C 179.683594 42.140625 181.695312 44.375 183.59375 46.644531 Z M 98.558594 119.875 C 98.554688 119.875 98.542969 119.875 98.539062 119.875 C 92.371094 119.46875 86.351562 118.855469 80.539062 118.070312 C 80.539062 118.035156 80.539062 118.007812 80.539062 117.898438 C 80.539062 117.632812 80.539062 116.660156 80.539062 115.78125 C 80.539062 114.894531 80.714844 114.359375 80.539062 113.476562 C 80.363281 112.59375 80.890625 112.683594 81.070312 112.238281 C 81.242188 111.796875 81.511719 111.976562 82.484375 111.269531 C 83.457031 110.558594 82.484375 109.9375 82.304688 109.675781 C 82.132812 109.410156 82.21875 109.144531 82.21875 108.703125 C 82.21875 108.257812 82.664062 108.347656 82.664062 108.085938 C 82.664062 107.816406 85.671875 106.226562 87.265625 105.695312 C 88.855469 105.164062 87.882812 105.34375 88.855469 105.253906 C 89.824219 105.164062 90.003906 105.605469 91.96875 106.582031 C 93.929688 107.554688 92.921875 106.664062 93.628906 106.582031 C 94.339844 106.488281 94.871094 106.582031 95.488281 106.582031 C 96.105469 106.582031 96.371094 106.226562 96.460938 105.960938 C 96.550781 105.695312 95.929688 105.339844 95.929688 105.074219 C 95.929688 104.8125 97.082031 104.988281 97.605469 104.988281 C 98.132812 104.988281 98.847656 104.988281 99.820312 104.988281 C 100.789062 104.988281 101.234375 105.074219 101.679688 105.519531 C 102.117188 105.964844 102.472656 106.226562 103.535156 106.761719 C 104.59375 107.289062 104.238281 106.847656 104.859375 106.847656 C 105.480469 106.847656 105.480469 106.847656 106.101562 106.847656 C 106.71875 106.847656 106.453125 107.554688 106.542969 108.347656 C 106.632812 109.148438 106.894531 109.679688 106.894531 109.679688 C 106.894531 109.679688 106.894531 109.679688 106.894531 110.738281 C 106.894531 111.800781 107.160156 111.535156 107.429688 111.710938 C 107.691406 111.882812 109.019531 114.457031 110.082031 114.277344 C 111.144531 114.101562 110.613281 113.921875 110.96875 113.390625 C 111.320312 112.859375 111.40625 111.355469 111.40625 111.355469 C 111.40625 111.355469 110.789062 110.558594 110.613281 110.207031 C 110.4375 109.855469 110.082031 108.703125 109.996094 108.167969 C 109.90625 107.632812 109.816406 106.839844 109.640625 106.578125 C 109.460938 106.3125 109.640625 105.074219 109.554688 104.101562 C 109.460938 103.128906 109.90625 103.039062 110 102.6875 C 110.085938 102.335938 110.792969 101.804688 110.96875 101.535156 C 111.144531 101.265625 111.941406 100.742188 112.296875 100.207031 C 112.527344 99.867188 112.914062 99.65625 113.339844 99.445312 C 113.234375 106.042969 113.160156 112.738281 113.125 119.464844 C 112.328125 119.109375 111.148438 118.5 111.148438 118.5 C 111.148438 118.5 110.261719 117.726562 109.558594 117.550781 C 108.847656 117.371094 107.878906 117.550781 106.988281 117.550781 C 106.109375 117.550781 104.160156 117.863281 103.894531 118.5 C 103.632812 119.140625 103.273438 119.9375 103.273438 119.9375 C 103.273438 119.9375 103.628906 119.9375 104.160156 119.9375 C 104.6875 119.9375 104.6875 119.671875 105.21875 119.496094 C 105.753906 119.316406 105.664062 118.441406 106.371094 118.699219 C 107.078125 118.960938 108.054688 118.351562 108.671875 118.699219 C 109.285156 119.050781 110.261719 119.9375 110.261719 119.9375 C 110.261719 119.9375 110.4375 119.496094 110.707031 119.9375 C 110.800781 120.097656 111.070312 120.261719 111.386719 120.421875 C 107.042969 120.339844 102.773438 120.152344 98.558594 119.875 Z M 90.058594 32.890625 C 91.507812 32.714844 91.332031 32.183594 92.742188 31.742188 C 94.160156 31.300781 94.246094 30.679688 94.867188 31.03125 C 95.488281 31.382812 94.691406 32.09375 95.574219 32.273438 C 96.460938 32.449219 96.636719 33.21875 97.609375 32.964844 C 98.585938 32.714844 97.785156 33.332031 98.585938 32.714844 C 99.378906 32.09375 99.644531 32.976562 99.378906 32.09375 C 99.113281 31.214844 98.136719 30.679688 97.964844 29.886719 C 97.785156 29.089844 97.4375 29.859375 97.609375 28.765625 C 97.785156 27.675781 97.699219 27.496094 97.875 26.964844 C 98.050781 26.433594 98.050781 26.257812 98.050781 25.726562 C 98.050781 25.195312 98.3125 25.375 96.902344 25.195312 C 96.804688 25.183594 96.71875 25.1875 96.625 25.1875 C 97.25 24.476562 97.863281 23.796875 98.46875 23.117188 C 99.78125 22.753906 98.636719 23.058594 99.910156 22.71875 C 100.238281 22.632812 100.421875 22.605469 100.535156 22.601562 C 100.585938 22.613281 100.636719 22.625 100.691406 22.632812 C 100.714844 22.648438 100.734375 22.65625 100.765625 22.644531 C 101.5625 22.785156 102.390625 22.898438 103.214844 23.019531 C 103.171875 23.203125 103.40625 23.132812 103.679688 23.402344 C 103.980469 23.691406 103.269531 23.601562 103.980469 23.691406 C 104.683594 23.78125 103.890625 23.691406 104.683594 23.78125 C 105.484375 23.867188 105.304688 24.222656 105.835938 23.78125 C 105.894531 23.730469 105.933594 23.699219 105.984375 23.660156 C 104.925781 26.023438 103.800781 28.609375 102.644531 31.304688 C 102.242188 31.757812 102.3125 31.6875 102.441406 31.789062 C 101.761719 33.371094 101.078125 35.015625 100.378906 36.699219 C 100.070312 36.71875 100.261719 36.339844 100.261719 36.339844 C 100.261719 36.339844 100.261719 35.457031 99.734375 35.1875 C 99.203125 34.925781 99.734375 35.1875 98.9375 35.367188 C 98.136719 35.542969 98.410156 35.453125 97.964844 35.277344 C 97.523438 35.097656 96.816406 34.925781 96.015625 34.484375 C 95.222656 34.039062 95.488281 34.304688 94.960938 34.039062 C 94.429688 33.773438 94.339844 33.59375 93.898438 32.976562 C 93.457031 32.359375 92.839844 33.597656 92.570312 33.773438 C 92.308594 33.953125 90.359375 34.484375 90.359375 34.484375 C 90.359375 34.484375 90.359375 34.484375 90.359375 34.128906 C 90.359375 33.777344 89.742188 33.777344 89.742188 33.777344 C 89.742188 33.777344 89.550781 33.820312 89.265625 33.859375 C 89.53125 33.539062 89.796875 33.210938 90.058594 32.890625 Z M 110.351562 18.296875 C 110.257812 19.09375 110.792969 19.359375 111.054688 19.402344 C 111.320312 19.449219 111.320312 20.332031 111.320312 20.332031 C 111.320312 20.332031 109.460938 21.390625 109.28125 21.128906 C 109.21875 21.027344 109.035156 20.902344 108.835938 20.78125 C 109.3125 19.726562 109.78125 18.714844 110.230469 17.75 C 110.304688 17.9375 110.367188 18.117188 110.351562 18.296875 Z M 118.398438 16.085938 C 118.664062 15.90625 119.28125 14.316406 119.375 13.871094 C 119.457031 13.429688 119.375 12.726562 119.375 12.195312 C 119.375 11.664062 118.570312 11.484375 117.949219 11.308594 C 117.84375 11.28125 117.75 11.289062 117.65625 11.292969 C 117.78125 8.691406 117.886719 6.679688 117.949219 5.375 C 118.945312 6.558594 120.546875 8.574219 122.523438 11.40625 C 122.292969 11.550781 122.042969 11.738281 121.902344 11.871094 C 121.726562 12.046875 120.667969 12.339844 120.601562 12.578125 C 120.546875 12.8125 120.367188 13.34375 120.367188 13.34375 C 120.367188 13.34375 120.835938 13.8125 120.367188 14.109375 C 119.898438 14.402344 119.722656 15.703125 119.953125 15.9375 C 120.191406 16.175781 120.371094 16.289062 120.25 16.585938 C 120.132812 16.882812 119.425781 17.527344 119.25 17.648438 C 119.070312 17.765625 118.421875 18.296875 118.363281 18.769531 C 118.308594 19.238281 118.601562 19.949219 118.78125 20.363281 C 118.953125 20.773438 119.363281 20.242188 119.308594 21.246094 C 119.277344 21.734375 119.34375 22.199219 119.539062 22.503906 C 118.734375 22.523438 117.929688 22.546875 117.125 22.546875 C 117.21875 20.476562 117.300781 18.5625 117.386719 16.792969 C 117.640625 16.539062 118.183594 16.226562 118.398438 16.085938 Z M 116.761719 59.078125 C 116.910156 59.734375 116.335938 60.066406 115.679688 60.351562 C 115.734375 58.625 115.792969 56.921875 115.847656 55.246094 C 116.40625 55.550781 116.304688 55.714844 116.761719 56.953125 C 117.246094 58.28125 116.535156 58.101562 116.761719 59.078125 Z M 108.226562 22.105469 C 108.273438 22.128906 108.304688 22.140625 108.347656 22.160156 C 108.296875 22.15625 108.261719 22.148438 108.214844 22.140625 C 108.214844 22.132812 108.222656 22.117188 108.226562 22.105469 Z M 115.640625 23.941406 C 115.605469 24.746094 115.578125 25.5625 115.535156 26.402344 C 115.417969 26.328125 115.308594 26.246094 115.183594 26.167969 C 114.628906 25.8125 113.265625 25.722656 112.207031 25.722656 C 111.144531 25.722656 109.730469 26.785156 109.023438 27.226562 C 108.3125 27.671875 109.023438 27.226562 108.050781 29.4375 C 107.078125 31.652344 108.3125 30.148438 108.492188 31.03125 C 108.667969 31.914062 108.492188 31.03125 108.667969 31.472656 C 108.847656 31.917969 109.554688 32.183594 110 33.066406 C 110.4375 33.953125 110.085938 33.683594 110 34.484375 C 109.910156 35.277344 109.644531 35.453125 109.109375 36.25 C 108.578125 37.046875 108.761719 36.867188 108.054688 37.136719 C 107.339844 37.398438 107.609375 37.046875 107.609375 37.046875 C 107.609375 37.046875 107.785156 35.097656 107.695312 34.835938 C 107.609375 34.574219 107.695312 33.953125 107.339844 34.125 C 106.988281 34.304688 106.546875 34.65625 106.285156 34.214844 C 106.019531 33.773438 106.109375 33.59375 106.109375 33.59375 C 106.109375 33.59375 105.222656 33.0625 105.042969 32.800781 C 104.871094 32.53125 105.222656 32.003906 105.222656 32.003906 C 105.222656 32.003906 105.757812 31.207031 105.757812 30.941406 C 105.757812 30.675781 105.757812 30.058594 105.757812 30.058594 L 105.578125 28.90625 L 105.578125 28.085938 C 105.644531 27.933594 105.710938 27.773438 105.777344 27.625 L 106.375 27.226562 L 107.703125 26.695312 L 107.96875 25.546875 L 108.496094 24.75 C 108.496094 24.75 110.710938 24.839844 111.0625 24.839844 C 111.414062 24.839844 113.449219 24.925781 113.808594 24.925781 C 114.136719 24.925781 114.304688 24.039062 114.324219 23.910156 C 114.761719 23.925781 115.199219 23.933594 115.640625 23.941406 Z M 116.761719 32.804688 C 117.15625 32.976562 117.335938 33.597656 117.6875 34.574219 C 118.042969 35.546875 117.867188 35.367188 118.132812 35.367188 C 118.398438 35.367188 118.929688 35.988281 118.929688 35.988281 C 118.929688 35.988281 120.253906 37.140625 120.253906 37.84375 C 120.253906 38.550781 119.992188 38.550781 119.550781 38.90625 C 119.101562 39.257812 118.929688 39.789062 118.839844 40.320312 C 118.75 40.851562 119.195312 41.734375 118.667969 41.824219 C 118.132812 41.910156 118.132812 41.910156 116.765625 41.910156 C 116.585938 41.910156 116.441406 41.921875 116.324219 41.941406 C 116.441406 38.726562 116.566406 35.660156 116.6875 32.761719 C 116.703125 32.769531 116.742188 32.796875 116.761719 32.804688 Z M 97.625 50.9375 C 97.621094 50.855469 97.609375 50.796875 97.609375 50.671875 C 97.609375 49.789062 98.054688 49.257812 98.316406 48.285156 C 98.585938 47.316406 98.851562 47.664062 100.710938 46.246094 C 102.5625 44.835938 101.765625 45.808594 102.476562 45.632812 C 103.183594 45.453125 103.007812 45.542969 103.449219 44.570312 C 103.890625 43.597656 104.601562 44.039062 105.660156 43.507812 C 106.71875 42.980469 105.660156 43.507812 106.71875 42.980469 C 107.78125 42.449219 106.71875 42.980469 106.632812 42.003906 C 106.542969 41.035156 105.921875 41.296875 107.074219 41.296875 C 108.226562 41.296875 107.960938 40.855469 107.960938 40.855469 C 107.960938 40.855469 107.960938 40.855469 108.3125 40.234375 C 108.667969 39.613281 108.933594 40.410156 109.199219 40.410156 C 109.460938 40.410156 109.996094 40.410156 110.789062 39.96875 C 111.582031 39.523438 112.121094 39.261719 112.558594 38.90625 C 113 38.554688 113.089844 38.464844 113.265625 37.582031 C 113.441406 36.699219 112.914062 36.785156 112.824219 36.167969 C 112.734375 35.546875 113.089844 35.457031 113 34.925781 C 112.910156 34.394531 112.910156 34.128906 112.910156 34.128906 C 112.910156 34.128906 112.910156 33.683594 113.175781 33.066406 C 113.441406 32.449219 113.621094 32.976562 114.148438 32.714844 C 114.675781 32.453125 114.945312 32.625 115.183594 32.273438 C 115.203125 32.238281 115.253906 32.253906 115.285156 32.238281 C 115.042969 38.152344 114.789062 44.789062 114.539062 51.96875 C 108.691406 51.894531 103.03125 51.542969 97.625 50.9375 Z M 108.925781 23.65625 C 108.917969 24.289062 108.738281 24.222656 108.226562 24.222656 C 107.804688 24.222656 107.511719 24.367188 107.117188 24.589844 C 107.273438 24.226562 107.433594 23.882812 107.589844 23.527344 C 108.039062 23.570312 108.472656 23.621094 108.925781 23.65625 Z M 103.148438 33.734375 C 103.285156 33.859375 103.417969 33.984375 103.449219 34.21875 C 103.539062 34.839844 103.449219 34.21875 103.1875 34.660156 C 102.921875 35.101562 102.828125 35.28125 102.324219 35.710938 C 102.59375 35.042969 102.871094 34.378906 103.148438 33.734375 Z M 114.496094 53.382812 C 114.410156 55.882812 114.328125 58.4375 114.242188 61.054688 C 113.839844 61.339844 113.753906 61.640625 113.621094 62.4375 C 113.445312 63.492188 114.066406 63.054688 113.976562 64.644531 C 113.882812 66.238281 113.882812 65.445312 113.175781 66.328125 C 112.46875 67.210938 112.121094 66.769531 111.582031 66.675781 C 111.054688 66.589844 110.527344 64.90625 110.347656 63.757812 C 110.171875 62.609375 110.523438 62.609375 110.433594 61.460938 C 110.347656 60.308594 109.992188 60.402344 109.105469 59.777344 C 108.222656 59.15625 107.960938 59.425781 107.070312 59.15625 C 106.1875 58.894531 106.101562 58.984375 104.949219 58.453125 C 103.800781 57.921875 104.777344 57.742188 104.152344 57.039062 C 103.535156 56.332031 102.910156 56.152344 102.117188 55.710938 C 101.324219 55.265625 100.703125 54.914062 100.171875 54.738281 C 99.640625 54.558594 99.550781 54.027344 99.460938 53.144531 C 99.433594 52.863281 99.339844 52.675781 99.222656 52.515625 C 104.140625 53.019531 109.246094 53.316406 114.496094 53.382812 Z M 99.996094 73.050781 C 100.351562 73.050781 101.410156 72.257812 102.832031 71.335938 C 102.832031 71.335938 102.832031 71.335938 103.363281 71.636719 C 103.894531 71.933594 103.363281 71.636719 103.273438 71.902344 C 103.1875 72.164062 103.714844 72.164062 104.15625 72.875 C 104.601562 73.582031 106.902344 75.085938 106.722656 75.53125 C 106.546875 75.972656 106.722656 75.53125 103.710938 75.972656 C 100.710938 76.414062 103.710938 75.972656 102.832031 75.882812 C 101.941406 75.796875 101.941406 75.175781 101.410156 75 C 100.882812 74.824219 100.96875 74.378906 99.910156 74.289062 C 98.851562 74.203125 99.910156 74.289062 98.9375 74.378906 C 97.964844 74.46875 98.496094 74.558594 97.699219 74.378906 C 96.90625 74.203125 96.90625 73.9375 96.90625 73.9375 C 96.90625 73.9375 99.644531 73.050781 99.996094 73.050781 Z M 130.171875 51.488281 C 129.878906 51 129.617188 50.570312 129.273438 50.230469 C 128.746094 49.699219 129.273438 50.230469 128.660156 51.117188 C 128.039062 52 128.660156 51.117188 128.796875 51.46875 C 128.808594 51.496094 128.796875 51.539062 128.78125 51.574219 C 127.535156 51.664062 126.273438 51.726562 125.007812 51.785156 C 124.640625 51.585938 124.257812 51.3125 123.882812 50.9375 C 123.175781 50.226562 123.792969 50.050781 123.617188 49.167969 C 123.441406 48.285156 123.527344 48.722656 122.90625 48.460938 C 122.292969 48.195312 122.113281 48.195312 121.851562 47.753906 C 121.585938 47.308594 120.875 47.132812 120.347656 46.957031 C 119.8125 46.777344 119.195312 46.777344 117.867188 46.601562 C 116.539062 46.425781 117.160156 46.867188 116.765625 47.398438 C 116.542969 47.691406 116.285156 48.148438 116.070312 48.847656 C 116.121094 47.445312 116.167969 46.0625 116.21875 44.710938 C 116.398438 44.695312 116.582031 44.652344 116.761719 44.570312 C 117.335938 44.300781 118.042969 43.503906 118.042969 43.503906 C 118.042969 43.503906 118.925781 43.949219 119.898438 44.835938 C 120.871094 45.71875 121.496094 46.246094 122.109375 47.046875 C 122.726562 47.839844 123.261719 48.199219 125.027344 47.398438 C 126.796875 46.601562 125.5625 47.3125 126.796875 47.046875 C 128.039062 46.78125 127.148438 46.246094 126.796875 45.808594 C 126.445312 45.363281 125.828125 45.277344 124.945312 44.921875 C 124.054688 44.570312 124.144531 44.300781 124.945312 44.390625 C 125.738281 44.480469 126.707031 44.480469 127.859375 44.125 C 129.011719 43.773438 128.304688 43.15625 128.304688 43.15625 C 128.304688 43.15625 126.890625 42.621094 125.476562 41.472656 C 124.054688 40.324219 124.585938 40.5 124.414062 39.972656 C 124.238281 39.441406 125.566406 39.707031 125.917969 39.707031 C 126.269531 39.707031 126.710938 40.328125 127.597656 41.121094 C 128.480469 41.917969 128.125 40.945312 128.125 40.679688 C 128.125 40.414062 127.773438 38.910156 127.421875 37.933594 C 127.070312 36.960938 125.828125 37.492188 125.386719 37.230469 C 124.945312 36.960938 123.175781 35.371094 122.996094 35.101562 C 122.824219 34.839844 122.730469 31.5625 122.113281 31.125 C 121.496094 30.679688 120.695312 30.503906 120.167969 30.0625 C 119.632812 29.621094 118.925781 29.175781 118.398438 28.734375 C 117.917969 28.335938 117.367188 27.742188 116.910156 27.367188 C 116.960938 26.199219 117.007812 25.0625 117.058594 23.96875 C 120.160156 23.960938 123.167969 23.804688 126.082031 23.53125 C 126.734375 24.167969 127.390625 24.855469 127.859375 25.257812 C 128.625 25.90625 129.515625 26.019531 129.628906 27.734375 C 129.75 29.441406 130.28125 29.265625 131.101562 29.265625 C 131.925781 29.265625 132.574219 29.621094 132.753906 29.738281 C 132.925781 29.859375 132.34375 30.390625 132.167969 30.800781 C 131.988281 31.214844 131.339844 31.6875 131.925781 32.625 C 132.519531 33.570312 131.464844 34.164062 132.785156 33.984375 C 133.738281 33.855469 134.304688 33.15625 134.660156 32.792969 C 134.804688 33.117188 134.960938 33.457031 135.109375 33.785156 C 135.078125 34.117188 135.035156 34.46875 134.992188 34.808594 C 134.875 35.8125 133.910156 37.464844 135.15625 38.527344 C 136.410156 39.589844 136.644531 40.058594 137.644531 40.53125 C 137.832031 40.617188 137.976562 40.710938 138.117188 40.796875 C 139.316406 43.753906 140.484375 46.894531 141.613281 50.21875 C 137.929688 50.765625 134.109375 51.1875 130.171875 51.488281 Z M 121.085938 22.449219 C 121.976562 21.949219 122.921875 21.273438 123.617188 21.421875 C 124.320312 21.574219 124.128906 21.75 124.640625 22.230469 C 123.464844 22.324219 122.28125 22.402344 121.085938 22.449219 Z M 140.835938 43.839844 C 141.496094 44.414062 141.585938 44.660156 142.546875 45.011719 C 143.667969 45.425781 143.253906 45.777344 143.898438 46.308594 C 144.550781 46.84375 145.023438 46.777344 146.023438 46.777344 C 147.027344 46.777344 147.441406 47.726562 147.972656 47.839844 C 148.5 47.960938 148.683594 48.136719 149.089844 47.839844 C 149.503906 47.546875 149.503906 48.253906 149.503906 47.132812 C 149.503906 46.011719 149.746094 46.664062 149.503906 45.363281 C 149.269531 44.066406 148.386719 40.765625 147.558594 39.292969 C 146.734375 37.820312 147.144531 37.878906 147.855469 37.230469 C 148.558594 36.582031 149.324219 36.757812 149.324219 35.636719 C 149.324219 34.515625 148.675781 34.28125 149.324219 32.804688 C 149.585938 32.214844 149.859375 32 150.082031 31.808594 C 153.871094 35.96875 157.710938 40.570312 161.4375 45.707031 C 155.914062 47.476562 149.730469 48.929688 143.046875 49.988281 C 142.324219 47.863281 141.585938 45.8125 140.835938 43.839844 Z M 115.707031 22.523438 C 113.722656 22.503906 111.765625 22.421875 109.855469 22.28125 C 109.523438 21.78125 111.347656 21.996094 111.761719 21.746094 C 112.207031 21.480469 113.707031 22.007812 113.707031 22.007812 C 113.707031 22.007812 114.507812 22.1875 115.183594 22.097656 C 115.496094 22.054688 115.585938 22.09375 115.613281 22.140625 C 115.648438 22.054688 115.691406 21.914062 115.742188 21.761719 C 115.730469 22.019531 115.71875 22.265625 115.707031 22.523438 Z M 108.753906 17.582031 C 108.15625 17.253906 107.820312 16.980469 107.410156 16.976562 C 106.898438 16.96875 107.515625 17.144531 106.898438 16.96875 C 106.28125 16.792969 105.570312 16.976562 105.570312 16.976562 C 105.21875 17.414062 105.394531 16.882812 105.21875 17.414062 C 105.039062 17.945312 105.039062 18.898438 105.394531 18.867188 C 105.75 18.828125 105.21875 18.5625 105.75 18.828125 C 106.28125 19.09375 105.832031 19.09375 106.28125 19.09375 C 106.722656 19.09375 106.664062 18.8125 107.003906 18.863281 C 107.339844 18.914062 106.632812 18.476562 107.339844 18.914062 C 107.648438 19.109375 107.828125 19.195312 107.972656 19.257812 C 107.585938 20.101562 107.179688 21.015625 106.769531 21.910156 C 106.757812 21.90625 106.738281 21.886719 106.738281 21.886719 C 106.738281 21.886719 106.699219 21.929688 106.660156 21.988281 C 106.472656 21.964844 106.289062 21.949219 106.105469 21.929688 C 106.105469 21.914062 106.101562 21.90625 106.105469 21.886719 C 106.191406 20.859375 106.191406 20.859375 106.191406 20.859375 L 105.839844 20.410156 C 105.839844 20.410156 105.589844 20.316406 105.09375 20.410156 C 104.601562 20.507812 103.898438 21.128906 103.941406 21.390625 C 103.976562 21.613281 104.25 21.386719 104.082031 21.667969 C 103.5 21.585938 102.910156 21.503906 102.335938 21.417969 C 102.355469 21.328125 102.375 21.25 102.390625 21.117188 C 102.480469 20.332031 102.390625 19.464844 102.390625 19.464844 C 102.390625 19.464844 102.515625 18.972656 102.851562 18.3125 C 107.484375 13.324219 111.320312 9.5 113.761719 7.140625 C 112.558594 9.542969 110.816406 13.125 108.753906 17.582031 Z M 121.933594 86.054688 C 122.472656 85.34375 123.175781 86.410156 125.03125 85.082031 C 126.890625 83.753906 125.738281 84.550781 125.917969 84.113281 C 126.09375 83.667969 125.917969 83.578125 125.917969 83.140625 C 125.917969 82.695312 126.269531 81.988281 126.269531 81.722656 C 126.269531 81.453125 126.800781 81.101562 127.328125 80.660156 C 127.859375 80.222656 128.039062 80.308594 128.835938 79.953125 C 129.628906 79.601562 129.984375 79.246094 130.246094 79.074219 C 130.519531 78.894531 130.78125 78.277344 132.464844 77.210938 C 134.140625 76.152344 132.546875 77.832031 132.371094 78.277344 C 132.195312 78.71875 130.695312 79.953125 130.957031 81.195312 C 131.222656 82.429688 131.398438 81.546875 132.371094 81.371094 C 133.339844 81.195312 134.847656 79.691406 135.113281 79.246094 C 135.378906 78.800781 137.59375 77.125 137.503906 76.773438 C 137.414062 76.417969 137.414062 75.972656 137.414062 75.972656 C 137.414062 75.972656 136.621094 75.710938 135.558594 75.179688 C 134.496094 74.648438 135.558594 75.179688 133.96875 74.734375 C 132.371094 74.289062 133.96875 74.734375 133.257812 73.941406 C 132.550781 73.144531 133.257812 73.941406 132.289062 73.585938 C 131.316406 73.234375 132.289062 73.585938 132.289062 72.96875 C 132.289062 72.347656 133.175781 72.519531 133.878906 71.339844 C 134.589844 70.148438 134.320312 70.488281 133.878906 69.957031 C 133.4375 69.429688 133.34375 69.871094 132.371094 69.871094 C 131.398438 69.871094 131.316406 69.957031 129.8125 70.398438 C 128.304688 70.847656 129.8125 70.398438 129.191406 71.339844 C 128.574219 72.277344 128.75 71.996094 128.304688 72.351562 C 127.863281 72.703125 127.421875 72.972656 125.742188 73.148438 C 124.0625 73.320312 125.742188 73.148438 126.003906 72.613281 C 126.269531 72.082031 126.003906 72.613281 126.890625 71.339844 C 127.773438 70.0625 127.691406 70.582031 128.128906 69.960938 C 128.574219 69.339844 129.457031 69.167969 130.078125 68.722656 C 130.699219 68.277344 131.136719 68.457031 132.023438 68.277344 C 132.910156 68.105469 134.773438 68.277344 136.535156 68.191406 C 138.300781 68.105469 138.039062 67.925781 138.480469 67.394531 C 138.925781 66.863281 139.453125 65.800781 139.632812 65.183594 C 139.8125 64.5625 140.253906 64.652344 140.433594 64.386719 C 140.605469 64.121094 141.578125 63.238281 141.492188 62.703125 C 141.398438 62.175781 141.316406 61.648438 140.871094 61.378906 C 140.429688 61.117188 139.988281 61.117188 139.101562 60.757812 C 138.21875 60.410156 138.398438 60.582031 138.398438 59.519531 C 138.398438 58.460938 138.398438 59.519531 138.132812 59.433594 C 137.867188 59.34375 136.539062 58.726562 135.476562 58.28125 C 134.414062 57.839844 134.949219 58.195312 133.800781 57.929688 C 132.652344 57.664062 132.734375 55.804688 132.292969 55.363281 C 131.914062 54.984375 131.464844 53.789062 130.960938 52.832031 C 134.777344 52.523438 138.507812 52.101562 142.089844 51.558594 C 142.746094 53.527344 143.394531 55.554688 144.015625 57.652344 C 145.109375 61.320312 146.152344 65.285156 147.132812 69.511719 C 146.804688 69.175781 146.753906 69.191406 146.445312 68.855469 C 146.050781 68.414062 147.152344 68.457031 145.871094 68.191406 C 144.589844 67.929688 144.148438 67.839844 143.796875 67.929688 C 143.441406 68.015625 143.21875 67.972656 143.21875 67.972656 C 143.21875 67.972656 143.085938 67.929688 142.910156 67.75 C 142.730469 67.578125 142.511719 67.128906 142.511719 66.777344 C 142.511719 66.425781 142.511719 65.984375 142.511719 65.71875 C 142.511719 65.457031 142.6875 65.144531 142.46875 65.1875 C 142.246094 65.234375 142.023438 65.1875 142.023438 65.1875 C 141.316406 66.207031 140.519531 66.644531 140.558594 66.957031 C 140.609375 67.265625 140.472656 67.75 140.558594 67.972656 C 140.652344 68.195312 140.589844 68.460938 140.527344 68.8125 C 140.476562 69.167969 140.296875 69.125 140.171875 69.789062 C 140.035156 70.449219 139.765625 70.941406 139.765625 71.113281 C 139.765625 71.292969 139.589844 71.382812 139.765625 71.863281 C 139.945312 72.351562 138.574219 72.132812 139.945312 72.351562 C 141.316406 72.574219 140.875 72.265625 142.289062 72.351562 C 143.703125 72.4375 143.308594 72.21875 144.542969 72.042969 C 145.785156 71.863281 146.136719 71.554688 146.402344 71.597656 C 146.664062 71.644531 146.09375 72.070312 145.871094 72.433594 C 145.652344 72.796875 146.445312 72.792969 147.023438 72.792969 C 147.4375 72.792969 147.644531 72.972656 147.898438 72.941406 C 148.640625 76.398438 149.324219 80.035156 149.941406 83.84375 C 141.078125 85.144531 131.648438 85.9375 121.886719 86.144531 C 121.902344 86.105469 121.910156 86.089844 121.933594 86.054688 Z M 149.085938 71.757812 C 149.117188 71.652344 149.089844 71.539062 149.007812 71.394531 C 147.882812 66.296875 146.652344 61.578125 145.371094 57.25 C 144.765625 55.207031 144.136719 53.246094 143.5 51.320312 C 150.308594 50.222656 156.609375 48.707031 162.242188 46.863281 C 163.3125 48.359375 164.375 49.863281 165.417969 51.445312 C 170.210938 58.714844 174.941406 67.265625 178.988281 77.097656 C 170.800781 79.851562 161.453125 82.070312 151.332031 83.628906 C 150.65625 79.464844 149.90625 75.507812 149.085938 71.757812 Z M 162.851562 45.257812 C 158.832031 39.679688 154.671875 34.667969 150.570312 30.226562 C 150.566406 30.117188 150.570312 30.035156 150.566406 29.914062 C 150.441406 27.613281 150.980469 28.441406 151.332031 27.792969 C 151.6875 27.140625 150.75 26.195312 149.796875 25.609375 C 148.855469 25.019531 146.789062 23.601562 146.144531 22.71875 C 145.773438 22.21875 144.730469 20.949219 143.734375 19.863281 C 145.691406 19.164062 147.476562 18.378906 149.074219 17.527344 C 156.160156 21.707031 163.847656 27.0625 171.386719 33.914062 C 173.207031 35.570312 174.929688 37.257812 176.609375 38.96875 C 172.828125 41.332031 168.203125 43.457031 162.851562 45.257812 Z M 142.628906 18.738281 C 142.308594 18.441406 142.027344 18.207031 141.839844 18.117188 C 140.957031 17.707031 141.546875 18.769531 140.070312 17.054688 C 138.601562 15.351562 137.890625 15.523438 137.238281 15.289062 C 136.59375 15.054688 136.0625 14.761719 135.292969 14.113281 C 134.527344 13.460938 135.058594 13.820312 134.230469 13.347656 C 133.402344 12.875 133.234375 12.582031 131.757812 11.578125 C 130.882812 10.984375 130.125 10.996094 129.632812 11.097656 C 126.261719 8.527344 123.410156 6.570312 121.339844 5.226562 C 121.722656 5.320312 122.191406 5.429688 122.625 5.535156 C 127.433594 7.042969 136.703125 10.414062 147.632812 16.691406 C 146.125 17.425781 144.460938 18.117188 142.628906 18.738281 Z M 127.757812 11.457031 C 127.632812 11.433594 127.335938 11.285156 126.683594 10.867188 C 125.03125 9.804688 124.035156 9.394531 123.617188 9.570312 C 123.449219 9.640625 123.28125 9.734375 123.125 9.816406 C 122.203125 8.523438 121.359375 7.382812 120.648438 6.464844 C 122.46875 7.648438 124.882812 9.304688 127.757812 11.457031 Z M 116.210938 11.773438 C 115.5 11.898438 114.40625 12.730469 113.882812 12.988281 C 113.464844 13.203125 112.851562 13.65625 111.734375 14.535156 C 114.160156 9.429688 115.90625 6.007812 116.566406 4.722656 C 116.5 6.039062 116.378906 8.4375 116.210938 11.773438 Z M 98.707031 20.746094 C 98.226562 20.648438 97.761719 20.535156 97.296875 20.429688 C 97.347656 20.382812 97.367188 20.378906 97.4375 20.328125 C 98.410156 19.535156 98.054688 20.097656 98.851562 19.464844 C 99.644531 18.828125 98.410156 19.359375 99.644531 18.828125 C 100.882812 18.292969 100.882812 18.292969 100.882812 18.292969 L 100.882812 17.324219 L 99.484375 17.414062 C 99.382812 17.585938 100 16.351562 98.496094 17.414062 C 96.992188 18.472656 96.375 18.292969 96.195312 18.5625 C 96.015625 18.828125 95.402344 19.464844 95.402344 19.464844 C 95.402344 19.464844 94.429688 18.859375 94.519531 19.464844 C 94.535156 19.582031 94.539062 19.660156 94.542969 19.738281 C 93.300781 19.394531 92.125 19.027344 90.992188 18.632812 C 100.289062 12.691406 108.066406 8.582031 112.507812 6.378906 C 109.492188 9.304688 104.59375 14.230469 98.707031 20.746094 Z M 97.316406 21.972656 C 97.1875 22.105469 97.117188 22.234375 96.90625 22.542969 C 96.460938 23.160156 95.308594 22.984375 96.460938 23.160156 C 96.488281 23.167969 96.507812 23.171875 96.535156 23.175781 C 95.882812 23.910156 95.242188 24.625 94.578125 25.390625 C 94.484375 25.3125 94.429688 25.183594 94.429688 24.933594 C 94.429688 23.78125 93.894531 24.757812 94.429688 23.78125 C 94.960938 22.808594 95.398438 22.011719 95.046875 21.921875 C 94.691406 21.835938 93.628906 21.921875 93.628906 21.921875 C 92.835938 22.101562 91.246094 22.101562 90.273438 22.898438 C 89.296875 23.695312 89.121094 23.605469 88.5 24.402344 C 87.882812 25.195312 87.527344 25.195312 87.351562 25.460938 C 87.171875 25.726562 86.113281 26.234375 86.640625 26.421875 C 87.171875 26.609375 87.351562 26.144531 87.972656 26.421875 C 88.589844 26.699219 89.125 27.316406 89.125 27.316406 C 89.125 27.316406 89.125 27.671875 89.210938 28.027344 C 89.296875 28.378906 88.148438 29.265625 88.238281 29.53125 C 88.324219 29.792969 87.972656 30.5 88.238281 31.03125 C 88.492188 31.542969 88.121094 31.421875 88.878906 32.117188 C 88.371094 32.734375 87.871094 33.339844 87.351562 33.972656 C 87.148438 33.976562 87.066406 33.96875 86.910156 33.867188 C 86.644531 33.6875 86.644531 33.066406 86.644531 33.066406 C 86.644531 33.066406 87.441406 32.535156 87.441406 32.273438 C 87.441406 32.007812 87.351562 31.652344 87.351562 31.652344 L 86.734375 30.855469 C 86.734375 30.855469 85.761719 29.886719 85.625 29.617188 C 85.484375 29.351562 84.789062 29.171875 84.789062 29.171875 C 84.789062 29.171875 84.609375 28.113281 84.609375 27.226562 C 84.609375 26.34375 83.726562 26.519531 83.726562 26.519531 C 83.726562 26.519531 83.019531 26.519531 82.398438 26.519531 C 81.777344 26.519531 81.425781 26.785156 80.984375 26.871094 C 80.566406 26.957031 80.046875 26.882812 78.898438 26.875 C 82.519531 24.242188 86.050781 21.828125 89.394531 19.652344 C 91.792969 20.550781 94.429688 21.339844 97.316406 21.972656 Z M 77.777344 27.703125 C 77.796875 27.683594 77.816406 27.671875 77.839844 27.65625 C 77.8125 27.671875 77.808594 27.683594 77.777344 27.703125 Z M 115.183594 151.960938 C 114.933594 152.054688 114.832031 152.222656 114.691406 152.378906 C 114.652344 150.007812 114.621094 147.625 114.59375 145.234375 C 114.644531 145.386719 114.679688 145.5 114.679688 145.5 L 115.566406 145.9375 C 115.566406 145.9375 115.65625 151.78125 115.183594 151.960938 Z M 116.878906 120.484375 C 116.71875 120.484375 116.5625 120.484375 116.398438 120.476562 C 116.355469 120.445312 116.324219 120.414062 116.273438 120.378906 C 115.746094 119.9375 116.105469 119.496094 114.863281 119.582031 C 114.710938 119.59375 114.640625 119.605469 114.527344 119.621094 C 114.570312 112.550781 114.648438 105.5 114.761719 98.570312 C 115.089844 98.328125 115.402344 98.089844 115.828125 97.820312 C 116.535156 97.378906 115.828125 97.820312 116.761719 96.761719 C 117.6875 95.699219 116.714844 95.875 116.761719 95.167969 C 116.800781 94.464844 117.246094 91.363281 117.777344 91.632812 C 118.308594 91.894531 117.777344 91.632812 118.929688 91.71875 C 120.082031 91.804688 118.929688 91.71875 119.375 90.742188 C 119.816406 89.769531 120.347656 89.683594 120.523438 89.242188 C 120.695312 88.804688 120.875 88.359375 121.140625 87.574219 C 131.292969 87.402344 141.039062 86.613281 150.164062 85.300781 C 151.691406 95.109375 152.742188 106.050781 153.023438 118.125 C 141.617188 119.660156 129.453125 120.484375 116.878906 120.484375 Z M 151.5625 85.097656 C 161.839844 83.542969 171.28125 81.3125 179.554688 78.53125 C 183.324219 87.964844 186.449219 98.550781 188.421875 110.308594 C 178.367188 113.59375 166.878906 116.1875 154.433594 117.933594 C 154.144531 105.863281 153.09375 94.917969 151.5625 85.097656 Z M 149.132812 15.914062 C 143.84375 12.839844 138.949219 10.449219 134.679688 8.585938 C 140.019531 10.035156 146.089844 11.800781 152.226562 13.835938 C 151.324219 14.558594 150.304688 15.261719 149.132812 15.914062 Z M 113.28125 4.425781 C 109.03125 6.480469 100.121094 11.054688 89.300781 18.035156 C 86.597656 16.984375 84.28125 15.78125 82.441406 14.480469 C 95.648438 8.789062 106.578125 5.714844 111.550781 4.46875 C 112.128906 4.453125 112.703125 4.4375 113.28125 4.425781 Z M 87.78125 19.039062 C 84.285156 21.324219 80.628906 23.835938 76.863281 26.613281 C 76.855469 26.464844 76.875 26.320312 76.824219 26.167969 C 76.644531 25.632812 76.472656 25.015625 76.203125 24.574219 C 75.9375 24.132812 75.851562 23.515625 75.671875 22.894531 C 75.492188 22.277344 75.582031 22.277344 75.226562 21.65625 C 74.875 21.035156 74.253906 20.414062 74.074219 19.886719 C 73.898438 19.355469 73.722656 19.355469 73.195312 19.445312 C 72.664062 19.535156 72.664062 19.355469 72.21875 19.535156 C 71.992188 19.621094 71.875 19.550781 71.648438 19.496094 C 74.808594 17.902344 77.90625 16.460938 80.898438 15.144531 C 82.722656 16.585938 85.039062 17.894531 87.78125 19.039062 Z M 63.730469 23.78125 C 63.46875 24.132812 63.285156 24.132812 62.933594 24.3125 C 62.847656 24.355469 62.78125 24.34375 62.730469 24.289062 C 63.078125 24.09375 63.417969 23.910156 63.769531 23.710938 C 63.753906 23.738281 63.75 23.753906 63.730469 23.78125 Z M 55.328125 35.28125 C 55.59375 35.28125 54.976562 35.722656 54.53125 35.921875 C 54.234375 36.066406 54.136719 36.535156 54.078125 36.933594 C 53.757812 36.6875 53.441406 36.449219 53.140625 36.207031 C 53.746094 35.917969 55.121094 35.28125 55.328125 35.28125 Z M 55.769531 37.402344 C 56.035156 37.402344 56.832031 36.960938 56.832031 36.960938 C 56.832031 36.960938 57.890625 36.519531 57.980469 35.988281 C 58.074219 35.460938 58.335938 38.464844 58.335938 38.464844 C 58.335938 38.464844 58.488281 39.242188 58.570312 39.902344 C 57.230469 39.136719 55.988281 38.34375 54.855469 37.523438 C 55.242188 37.476562 55.648438 37.402344 55.769531 37.402344 Z M 59.582031 42.648438 C 59.757812 43.179688 60.015625 43.957031 59.929688 44.304688 C 59.835938 44.65625 59.753906 45.101562 59.480469 45.457031 C 59.222656 45.808594 59.222656 47.933594 58.863281 48.289062 C 58.511719 48.640625 58.863281 49.171875 58.601562 50.234375 C 58.335938 51.292969 58.863281 51.5625 58.863281 51.5625 L 58.601562 52.890625 C 58.601562 52.890625 58.15625 54.394531 57.890625 54.925781 C 57.628906 55.457031 57.449219 56.074219 57.449219 56.074219 C 57.449219 56.074219 57.714844 57.84375 57.097656 58.375 C 56.476562 58.90625 57.097656 58.375 56.832031 58.640625 C 56.566406 58.90625 56.480469 59.699219 56.300781 60.320312 C 56.125 60.941406 57.097656 62.265625 57.1875 62.707031 C 57.273438 63.152344 57.273438 63.59375 57.1875 63.949219 C 57.097656 64.300781 57.539062 65.277344 57.273438 65.894531 C 57.007812 66.515625 56.210938 69.613281 55.765625 70.492188 C 55.328125 71.382812 54.355469 72.707031 53.734375 73.589844 C 53.152344 74.425781 53.015625 74.898438 52.1875 76.355469 C 46.089844 74.164062 40.730469 71.667969 36.242188 68.910156 C 42.292969 60.359375 49 52.835938 55.605469 46.398438 C 56.925781 45.113281 58.253906 43.867188 59.582031 42.648438 Z M 52.777344 90.640625 C 53.113281 90.875 53.207031 91.039062 53.824219 91.71875 C 54.617188 92.601562 54.617188 97.464844 54.796875 98.351562 C 54.972656 99.234375 56.125 99.765625 56.125 99.765625 C 56.125 99.765625 56.210938 100.386719 56.125 100.828125 C 56.035156 101.269531 56.125 102.066406 55.78125 102.417969 C 55.4375 102.773438 55.855469 102.953125 55.855469 102.953125 C 55.855469 102.953125 55.679688 103.394531 55.855469 103.75 C 56.035156 104.101562 55.855469 104.542969 55.855469 104.542969 C 55.855469 104.542969 56.738281 105.164062 57.273438 105.429688 C 57.808594 105.691406 58.246094 105.960938 58.15625 106.222656 C 58.070312 106.484375 58.332031 108.523438 58.421875 109.230469 C 58.507812 109.9375 58.777344 109.9375 58.777344 110.292969 C 58.777344 110.644531 59.746094 112.058594 59.746094 112.328125 C 59.746094 112.59375 60.539062 113.03125 60.539062 113.03125 L 60.984375 113.03125 C 60.984375 113.03125 61.160156 111.882812 61.160156 111.621094 C 61.160156 111.355469 61.160156 110.824219 61.160156 110.824219 C 61.160156 110.824219 60.984375 110.378906 60.539062 110.03125 C 60.097656 109.675781 59.925781 108.609375 59.925781 108.609375 C 59.925781 108.609375 59.925781 107.375 59.746094 107.109375 C 59.570312 106.84375 59.125 104.898438 59.125 104.898438 L 58.859375 103.394531 C 58.859375 103.394531 58.417969 101.886719 58.332031 101.625 C 58.242188 101.359375 58.242188 101.003906 58.066406 100.652344 C 57.886719 100.296875 57.976562 99.324219 57.976562 99.324219 L 57.269531 96.933594 C 57.269531 96.933594 58.507812 96.585938 59.226562 96.933594 C 59.945312 97.289062 60.007812 99.0625 59.304688 100.121094 C 58.59375 101.183594 62.925781 105.78125 62.925781 105.78125 C 62.925781 105.78125 63.019531 106.757812 62.929688 107.378906 C 62.84375 107.996094 63.8125 108.171875 63.8125 108.789062 C 63.8125 109.410156 66.820312 114.277344 67.265625 115.601562 C 67.296875 115.699219 67.289062 115.796875 67.316406 115.886719 C 59.386719 114.335938 51.960938 112.425781 45.191406 110.203125 C 47.296875 103.535156 49.871094 97 52.777344 90.640625 Z M 67.414062 117.316406 C 67.363281 118.152344 67.214844 119.070312 67.269531 120.199219 C 67.351562 122.148438 69.304688 123.296875 69.304688 123.296875 L 71.425781 124.800781 L 73.195312 125.417969 C 73.195312 125.417969 73.675781 125.683594 74.414062 126.070312 C 72.984375 136.105469 72.167969 146.355469 72.25 156.457031 C 60.101562 154.425781 48.9375 151.59375 39.226562 148.109375 C 39.199219 146.515625 39.203125 144.902344 39.257812 143.28125 C 39.585938 132.550781 41.621094 121.890625 44.792969 111.507812 C 51.71875 113.789062 59.320312 115.738281 67.414062 117.316406 Z M 75.742188 126.757812 C 77.945312 127.867188 81.011719 129.3125 82.660156 129.574219 C 85.402344 130.023438 86.550781 128.960938 87.792969 129.574219 C 89.03125 130.195312 91.0625 132.40625 92.214844 133.644531 C 93.367188 134.882812 93.277344 134.089844 93.984375 134.527344 C 94.691406 134.964844 94.957031 134.617188 96.550781 135.066406 C 98.136719 135.503906 99.730469 138.597656 99.730469 139.308594 C 99.730469 140.011719 100.257812 140.636719 100.882812 141.691406 C 101.503906 142.757812 101.941406 141.691406 102.917969 141.691406 C 103.894531 141.691406 104.511719 144.085938 104.957031 143.992188 C 105.394531 143.910156 106.8125 143.910156 106.8125 143.910156 C 106.8125 143.910156 108.3125 144.792969 109.023438 145.5 L 110.175781 144.441406 L 111.410156 143.464844 L 112.472656 143.023438 C 112.472656 143.023438 112.800781 143.160156 113.164062 143.316406 C 113.195312 146.609375 113.242188 149.882812 113.300781 153.128906 C 112.71875 153.558594 112.074219 154.148438 111.679688 154.433594 C 111.054688 154.882812 110.613281 157.179688 109.910156 158.683594 C 109.71875 159.085938 109.589844 159.523438 109.496094 159.953125 C 97 159.628906 84.925781 158.515625 73.667969 156.699219 C 73.570312 146.75 74.355469 136.65625 75.742188 126.757812 Z M 109.3125 161.367188 C 109.28125 161.875 109.28125 162.292969 109.28125 162.390625 C 109.28125 162.660156 109.996094 163.367188 109.996094 164.082031 C 109.996094 164.777344 109.996094 164.082031 109.640625 164.167969 C 109.285156 164.25 108.757812 165.582031 108.402344 166.019531 C 108.050781 166.464844 108.402344 168.054688 108.402344 168.585938 C 108.402344 169.113281 109.109375 169.824219 109.90625 170.09375 C 110.484375 170.285156 112.546875 171.378906 113.808594 172.234375 C 114.0625 179.070312 114.382812 185.652344 114.796875 191.886719 C 101.957031 191.789062 89.484375 190.832031 77.808594 189.105469 C 75.132812 179.300781 73.878906 168.863281 73.675781 158.226562 C 84.835938 159.972656 96.824219 161.050781 109.3125 161.367188 Z M 115.273438 173.765625 C 115.785156 174.578125 116.386719 175.628906 116.710938 176.023438 C 117.144531 176.546875 117.074219 177.609375 116.761719 178.144531 C 116.449219 178.671875 117.605469 178.851562 117.867188 179.558594 C 118.128906 180.265625 118.570312 180.175781 118.75 180.621094 C 118.925781 181.0625 119.632812 181.679688 120.078125 182.390625 C 120.519531 183.09375 122.730469 183.976562 123.882812 184.070312 C 125.03125 184.15625 128.390625 184.953125 128.746094 186.019531 C 128.875 186.410156 128.738281 188.769531 128.464844 191.65625 C 124.644531 191.816406 120.785156 191.910156 116.878906 191.910156 C 116.660156 191.910156 116.4375 191.90625 116.210938 191.90625 C 115.828125 186.136719 115.523438 180.058594 115.273438 173.765625 Z M 116.878906 193.328125 C 120.738281 193.328125 124.546875 193.226562 128.328125 193.078125 C 127.828125 197.746094 127.050781 203.121094 126.449219 203.878906 C 125.445312 205.136719 125.152344 204.824219 123.242188 213.050781 C 121.550781 213.101562 119.855469 213.15625 118.175781 213.160156 C 117.425781 207.15625 116.804688 200.484375 116.3125 193.316406 C 116.5 193.320312 116.691406 193.328125 116.878906 193.328125 Z M 139.363281 211.40625 C 139.539062 211.132812 140.957031 211.050781 141.308594 210.960938 C 141.308594 210.960938 141.324219 210.957031 141.335938 210.953125 C 141.269531 211.183594 141.207031 211.417969 141.148438 211.648438 C 140.496094 211.730469 139.859375 211.785156 139.210938 211.859375 C 139.269531 211.636719 139.328125 211.457031 139.363281 211.40625 Z M 169.816406 155.035156 C 168.746094 154.710938 168.714844 154.785156 168.113281 154.703125 C 167.492188 154.613281 166.519531 154.523438 165.019531 153.902344 C 163.511719 153.28125 162.097656 154.082031 162.097656 154.082031 L 163.6875 152.664062 C 163.6875 152.664062 163.777344 151.511719 162.894531 149.921875 C 161.742188 144.523438 154.839844 144.964844 154.308594 144.964844 C 154.152344 144.964844 153.980469 144.96875 153.800781 144.960938 C 154.421875 135.9375 154.625 127.382812 154.46875 119.34375 C 166.960938 117.589844 178.515625 114.984375 188.65625 111.675781 C 190.488281 123.234375 191.183594 135.925781 190.292969 149.71875 C 183.976562 151.769531 177.117188 153.558594 169.816406 155.035156 Z M 190.023438 111.230469 C 195.210938 109.480469 200 107.546875 204.347656 105.449219 C 204.605469 107.421875 205.09375 109.238281 206.0625 110.378906 C 208.453125 113.214844 208.453125 113.035156 208.359375 115.25 C 208.273438 117.457031 208.273438 118.78125 208.804688 119.140625 C 209.335938 119.496094 210.488281 121.617188 211.011719 122.324219 C 211.542969 123.027344 211.460938 123.824219 212.253906 124.886719 C 213.019531 125.90625 212.4375 126.359375 215.351562 127.175781 C 215.703125 130.785156 215.945312 134.351562 216.089844 137.871094 C 209.542969 142.210938 201.296875 146.035156 191.75 149.242188 C 192.59375 135.464844 191.875 122.789062 190.023438 111.230469 Z M 215.171875 68.363281 C 215.171875 68.363281 213.132812 67.121094 212.777344 67.570312 C 212.429688 68.011719 210.488281 70.398438 210.488281 70.398438 C 210.488281 70.398438 209.6875 73.050781 209.511719 73.320312 C 209.335938 73.582031 205.617188 76.59375 205.4375 76.855469 C 205.285156 77.101562 204.984375 77.863281 204.863281 78.792969 C 204.195312 77.234375 203.503906 75.703125 202.800781 74.210938 C 202.914062 74.210938 203.011719 74.195312 203.144531 74.207031 C 204.296875 74.292969 205.886719 74.128906 206.15625 74.347656 C 206.417969 74.5625 207.214844 74.207031 208.007812 73.234375 C 208.808594 72.261719 208.457031 71.640625 208.007812 70.136719 C 207.5625 68.636719 206.683594 67.835938 206.507812 66.683594 C 206.375 65.832031 206.101562 65.464844 205.929688 64.359375 C 207.808594 62.621094 209.382812 60.808594 210.640625 58.945312 C 212.449219 62 214.121094 65.152344 215.628906 68.390625 Z M 163.363281 16.328125 C 160.597656 15.25 157.761719 14.214844 154.902344 13.238281 C 155.242188 12.871094 155.523438 12.496094 155.796875 12.113281 C 158.070312 13.011719 160.316406 13.96875 162.515625 15.015625 C 162.722656 15.441406 163.027344 15.90625 163.363281 16.328125 Z M 153.421875 12.742188 C 143.21875 9.324219 133.070312 6.625 126.171875 4.925781 C 136.023438 5.902344 145.5 8.183594 154.433594 11.582031 C 154.140625 11.976562 153.800781 12.363281 153.421875 12.742188 Z M 104.714844 4.886719 C 98.792969 6.640625 90.542969 9.417969 81.191406 13.484375 C 80.109375 12.5625 79.25 11.59375 78.671875 10.585938 C 86.953125 7.683594 95.675781 5.738281 104.714844 4.886719 Z M 50.019531 32.34375 C 49.960938 32.570312 49.90625 32.78125 49.871094 32.996094 C 49.769531 32.878906 49.664062 32.765625 49.570312 32.648438 C 49.714844 32.539062 49.871094 32.445312 50.019531 32.34375 Z M 49.457031 34.519531 C 49.363281 34.980469 49.542969 35.191406 49.402344 35.898438 C 49.222656 36.785156 49.402344 35.898438 48.871094 36.167969 C 48.742188 36.226562 48.679688 36.257812 48.648438 36.273438 C 48.648438 36.273438 48.628906 36.285156 48.625 36.285156 C 48.613281 36.292969 48.59375 36.304688 48.511719 36.339844 C 48.160156 36.519531 47.984375 36.871094 47.636719 36.871094 C 47.277344 36.871094 46.390625 37.402344 46.390625 37.402344 C 46.390625 37.402344 45.59375 37.847656 45.0625 37.847656 C 44.535156 37.847656 44.621094 38.289062 44.007812 38.378906 C 43.386719 38.464844 43.210938 38.464844 42.679688 38.464844 C 42.144531 38.464844 42.679688 39.351562 42.679688 39.351562 C 42.679688 39.351562 44.535156 39.527344 45.238281 39.441406 C 45.949219 39.351562 46.214844 39.265625 46.746094 39.085938 C 47.277344 38.910156 48.335938 38.910156 48.785156 38.644531 C 49.222656 38.378906 50.285156 37.761719 50.285156 37.761719 C 50.285156 37.761719 51.613281 37.492188 51.964844 37.40625 C 52.101562 37.371094 52.203125 37.269531 52.285156 37.160156 C 54.140625 38.675781 56.316406 40.121094 58.769531 41.472656 C 57.386719 42.738281 56.015625 44.023438 54.648438 45.351562 C 47.960938 51.871094 41.171875 59.484375 35.046875 68.140625 C 29.636719 64.644531 25.636719 60.761719 23.335938 56.597656 C 30.882812 47.503906 39.554688 39.832031 48.507812 33.421875 C 48.808594 33.789062 49.125 34.15625 49.457031 34.519531 Z M 35.488281 69.988281 C 40.035156 72.777344 45.425781 75.316406 51.539062 77.539062 C 51.15625 78.300781 51.246094 78.359375 51.246094 78.359375 C 51.246094 78.359375 51.523438 81.902344 51.351562 83.316406 C 51.171875 84.730469 51.257812 88.003906 51.351562 89.070312 C 51.386719 89.523438 51.46875 89.730469 51.59375 89.878906 C 48.628906 96.339844 45.992188 102.976562 43.851562 109.753906 C 34.628906 106.628906 26.675781 102.917969 20.394531 98.746094 C 24.257812 88.167969 29.523438 78.570312 35.488281 69.988281 Z M 39.285156 149.8125 C 48.996094 153.246094 60.128906 156.015625 72.265625 158 C 72.457031 168.609375 73.679688 179.042969 76.300781 188.875 C 65.398438 187.191406 55.230469 184.855469 46.171875 181.933594 C 41.960938 171.785156 39.671875 161.050781 39.285156 149.8125 Z M 78.246094 190.597656 C 89.835938 192.28125 102.191406 193.210938 114.898438 193.296875 C 115.390625 200.46875 116 207.15625 116.75 213.183594 C 106.15625 213.144531 96.140625 212.230469 86.988281 210.855469 C 83.191406 204.566406 80.324219 197.765625 78.246094 190.597656 Z M 122.917969 214.472656 C 122.910156 214.484375 122.910156 214.492188 122.90625 214.503906 C 120.695312 224.230469 122.90625 225.730469 122.90625 225.730469 C 122.90625 225.730469 124.324219 225.554688 124.585938 225.289062 C 124.855469 225.027344 126.539062 225.027344 126.976562 224.753906 C 127.421875 224.496094 127.421875 224.402344 127.6875 223.964844 C 127.945312 223.523438 128.304688 223.171875 128.304688 223.171875 C 128.304688 223.171875 129.367188 222.105469 129.722656 221.574219 C 130.074219 221.046875 130.605469 220.691406 130.78125 220.160156 C 130.957031 219.628906 130.78125 219.539062 130.78125 219.539062 C 130.78125 219.539062 131.132812 218.570312 131.226562 218.214844 C 131.3125 217.859375 131.84375 218.035156 132.285156 217.859375 C 132.726562 217.679688 133.257812 217.417969 133.4375 217.0625 C 133.613281 216.710938 133.878906 215.828125 133.878906 215.300781 C 133.878906 214.765625 134.589844 214.503906 135.117188 214.234375 C 135.648438 213.96875 136.265625 214.675781 137.507812 214.585938 C 138.046875 214.546875 138.433594 213.984375 138.707031 213.335938 C 139.394531 213.261719 140.070312 213.199219 140.753906 213.121094 C 139.820312 216.628906 138.824219 220.1875 137.769531 223.792969 C 132.070312 224.976562 126.199219 225.714844 120.214844 225.988281 C 119.519531 222.5625 118.90625 218.738281 118.359375 214.574219 C 119.867188 214.570312 121.390625 214.519531 122.917969 214.472656 Z M 142.261719 212.957031 C 154.671875 211.34375 167.363281 208.507812 180.210938 204.558594 C 180.214844 204.558594 180.222656 204.5625 180.230469 204.5625 C 180.378906 204.5625 180.527344 204.511719 180.644531 204.425781 C 180.835938 204.367188 181.023438 204.304688 181.214844 204.25 C 168.953125 213.371094 154.746094 219.996094 139.34375 223.429688 C 140.371094 219.894531 141.351562 216.398438 142.261719 212.957031 Z M 142.660156 211.460938 C 142.726562 211.195312 142.789062 210.9375 142.855469 210.671875 C 143.234375 210.609375 143.609375 210.550781 143.875 210.519531 C 144.582031 210.429688 144.84375 209.984375 145.820312 209.632812 C 146.789062 209.285156 146.527344 209.285156 147.769531 208.21875 C 149.011719 207.15625 144.761719 205.210938 145.820312 204.324219 C 146.882812 203.441406 145.996094 204.769531 147.058594 205.480469 C 148.121094 206.183594 147.769531 205.652344 148.65625 205.652344 C 149.539062 205.652344 149.625 205.5625 150.6875 205.296875 C 151.746094 205.039062 151.746094 205.296875 152.636719 204.765625 C 153.519531 204.238281 152.636719 204.765625 153.878906 203.792969 C 155.113281 202.824219 154.410156 203.355469 155.464844 202.289062 C 156.53125 201.230469 156.261719 201.492188 157.324219 199.988281 C 158.382812 198.488281 158.117188 198.753906 161.660156 196.632812 C 165.195312 194.507812 162.191406 195.21875 162.011719 193.800781 C 161.835938 192.386719 162.277344 192.828125 162.898438 191.59375 C 163.292969 190.789062 166.933594 189.308594 170.117188 188.039062 C 175.328125 186.933594 180.308594 185.664062 185.027344 184.242188 C 183.566406 190.398438 181.796875 196.730469 179.683594 203.242188 C 167.144531 207.082031 154.769531 209.851562 142.660156 211.460938 Z M 175.328125 185.40625 C 175.257812 185.230469 175.277344 184.921875 175.722656 184.25 C 177.046875 182.210938 177.84375 181.773438 178.105469 181.15625 C 178.375 180.527344 179.347656 179.382812 179.609375 178.40625 C 179.875 177.429688 179.964844 177.785156 179.875 177.171875 C 179.789062 176.546875 179.257812 172.652344 180.226562 170.800781 C 181.199219 168.945312 182.527344 168.324219 183.679688 166.550781 C 184.828125 164.777344 184.828125 165.132812 185.714844 164.167969 C 186.597656 163.195312 187.039062 162.039062 187.21875 160.976562 C 187.390625 159.917969 187.21875 158.949219 186.515625 158.238281 C 185.804688 157.523438 185.363281 158.238281 184.390625 157.355469 C 183.417969 156.46875 182.96875 156.386719 180.671875 155.933594 C 178.375 155.496094 179.167969 156.46875 176.691406 156.289062 C 174.21875 156.109375 175.542969 156.640625 173.859375 156.46875 C 172.324219 156.3125 173.578125 156.429688 173.332031 155.714844 C 179.277344 154.414062 184.914062 152.90625 190.1875 151.21875 C 189.46875 161.125 187.929688 171.59375 185.386719 182.652344 C 182.15625 183.640625 178.800781 184.5625 175.328125 185.40625 Z M 217.550781 138.558594 C 220.199219 136.761719 222.570312 134.867188 224.628906 132.902344 C 223.207031 141.746094 220.746094 150.253906 217.355469 158.273438 C 217.730469 151.40625 217.769531 144.84375 217.550781 138.558594 Z M 217.472656 136.910156 C 217.34375 133.769531 217.144531 130.691406 216.875 127.703125 C 218.632812 128.546875 217.746094 129.445312 219.859375 128.160156 C 222.335938 126.65625 223.75 124.804688 224.992188 123.203125 C 225.308594 122.796875 225.582031 122.402344 225.824219 122.03125 C 225.652344 124.90625 225.363281 127.746094 224.96875 130.566406 C 222.855469 132.777344 220.347656 134.890625 217.472656 136.910156 Z M 45.777344 28.878906 C 46.234375 30.042969 46.871094 31.183594 47.660156 32.296875 C 38.78125 38.65625 30.164062 46.242188 22.640625 55.214844 C 22.554688 55.035156 22.480469 54.851562 22.402344 54.667969 C 28.804688 44.894531 36.707031 36.1875 45.777344 28.878906 Z M 7.554688 88.691406 C 10.164062 92.4375 13.929688 95.972656 18.691406 99.238281 C 14.929688 109.835938 12.585938 121.390625 12.367188 133.863281 C 9.207031 131.226562 6.664062 128.453125 4.816406 125.558594 C 4.5 122.164062 4.316406 118.726562 4.316406 115.25 C 4.316406 106.09375 5.453125 97.207031 7.554688 88.691406 Z M 19.484375 171.117188 C 26.320312 175.734375 35.023438 179.765625 45.113281 183.0625 C 48.238281 190.460938 52.359375 197.574219 57.480469 204.351562 C 52.535156 202.910156 48.328125 201.484375 44.996094 200.269531 C 44.746094 200.1875 44.511719 200.28125 44.324219 200.433594 C 34.4375 192.199219 26.023438 182.273438 19.484375 171.117188 Z M 97.894531 224.753906 C 94.070312 220.957031 90.757812 216.839844 87.945312 212.429688 C 96.898438 213.726562 106.644531 214.570312 116.9375 214.59375 C 117.476562 218.761719 118.089844 222.585938 118.773438 226.027344 C 117.582031 226.058594 116.386719 226.113281 115.183594 226.113281 C 109.304688 226.113281 103.53125 225.644531 97.894531 224.753906 Z M 184.371094 201.78125 C 183.351562 202.117188 182.335938 202.410156 181.316406 202.734375 C 183.390625 196.230469 185.15625 189.898438 186.589844 183.75 C 194.941406 181.136719 202.453125 178.046875 208.808594 174.507812 C 202.210938 184.898438 193.945312 194.117188 184.371094 201.78125 Z M 184.371094 201.78125 " fill-opacity="1" fill-rule="nonzero"/></g><path fill="#000000" d="M 123.085938 124.804688 C 122.996094 125.152344 121.671875 125.066406 121.320312 125.6875 C 120.964844 126.300781 120.347656 126.839844 121.320312 126.921875 C 122.292969 127.011719 122.824219 126.839844 123.882812 126.921875 C 124.945312 127.011719 123.882812 127.148438 125.296875 126.953125 C 126.710938 126.75 126.09375 127.191406 127.507812 126.578125 C 128.921875 125.957031 129.8125 125.867188 130.605469 125.867188 C 131.398438 125.867188 131.398438 125.113281 131.757812 125.351562 C 132.105469 125.601562 132.371094 126.257812 132.371094 125.351562 C 132.371094 124.449219 132.289062 124.113281 130.785156 124.105469 C 129.277344 124.09375 128.839844 124.113281 128.304688 124.105469 C 127.773438 124.09375 126.585938 124.105469 126.585938 124.105469 L 125.300781 123.652344 C 123.53125 123.738281 123.085938 124.105469 123.085938 124.105469 C 123.085938 124.105469 123.886719 124.714844 124.191406 124.804688 C 124.503906 124.886719 123.175781 124.445312 123.085938 124.804688 Z M 123.085938 124.804688 " fill-opacity="1" fill-rule="nonzero"/><path fill="#000000" d="M 135.542969 126.691406 C 136.355469 126.65625 135.910156 126.839844 136.355469 126.65625 C 136.796875 126.476562 136.265625 126.921875 136.796875 126.480469 C 137.328125 126.039062 137.328125 126.039062 137.328125 126.039062 C 137.328125 126.039062 137.507812 125.6875 137.769531 125.6875 C 138.039062 125.6875 138.039062 125.015625 137.769531 125.347656 C 137.507812 125.6875 136.183594 125.347656 136.183594 125.347656 C 135.5625 125.417969 135.03125 125.507812 134.949219 125.6875 C 134.855469 125.863281 134.949219 125.863281 134.949219 126.21875 C 134.945312 126.574219 134.722656 126.722656 135.542969 126.691406 Z M 135.542969 126.691406 " fill-opacity="1" fill-rule="nonzero"/><path fill="#000000" d="M 163.890625 32.039062 C 162.894531 31.917969 162.835938 31.742188 162.359375 31.328125 C 161.882812 30.914062 161.339844 30.796875 161.140625 30.796875 C 160.945312 30.796875 160.648438 30.796875 160.648438 30.796875 C 160.234375 31.382812 160.058594 31.800781 160 31.976562 C 159.9375 32.152344 159.234375 32.625 159.234375 32.625 C 159.234375 32.625 159.175781 32.570312 158.761719 32.625 C 158.351562 32.683594 157.46875 31.5625 157.230469 32.625 C 156.988281 33.683594 156.640625 33.570312 157.230469 34.277344 C 157.816406 34.988281 159.238281 35.753906 159.882812 36.167969 C 160.535156 36.582031 160.351562 36.992188 161.835938 37.167969 C 163.308594 37.34375 162.71875 38.054688 163.890625 36.816406 C 165.074219 35.574219 164.894531 36.519531 165.136719 34.988281 C 165.371094 33.453125 165.539062 33.636719 165.136719 32.976562 C 164.722656 32.332031 164.894531 32.15625 163.890625 32.039062 Z M 163.890625 32.039062 " fill-opacity="1" fill-rule="nonzero"/><path fill="#000000" d="M 100.667969 29.628906 C 100.640625 29.671875 100.644531 29.6875 100.667969 29.628906 Z M 100.667969 29.628906 " fill-opacity="1" fill-rule="nonzero"/><path fill="#000000" d="M 100.710938 29.351562 C 100.710938 29.5 100.6875 29.582031 100.667969 29.628906 C 100.710938 29.558594 100.835938 29.433594 101.234375 29.351562 C 102.117188 29.171875 101.679688 29.53125 102.117188 29.171875 C 102.5625 28.824219 101.855469 29.171875 102.5625 28.824219 C 103.269531 28.472656 103.09375 29.171875 103.269531 28.472656 C 103.449219 27.761719 103.007812 28.378906 103.269531 27.453125 C 103.535156 26.523438 103.183594 27.144531 103.535156 26.523438 C 103.886719 25.90625 103.625 26.433594 103.886719 25.90625 C 104.152344 25.375 103.199219 25.460938 103.199219 25.460938 C 103.199219 25.460938 103.003906 25.546875 102.558594 25.992188 C 102.117188 26.433594 101.234375 26.523438 100.878906 26.789062 C 100.527344 27.054688 100.878906 26.171875 100.527344 27.054688 C 100.171875 27.9375 100.351562 28.183594 100.527344 28.765625 C 100.710938 29.351562 100.710938 28.734375 100.710938 29.351562 Z M 100.710938 29.351562 " fill-opacity="1" fill-rule="nonzero"/><path fill="#000000" d="M 110.789062 42.976562 C 110.347656 42.445312 110.519531 42.003906 109.722656 42.003906 C 108.933594 42.003906 108.933594 42.003906 108.933594 42.003906 C 108.933594 42.003906 108.050781 42.535156 107.964844 43.0625 C 107.875 43.59375 107.308594 43.332031 107.414062 43.859375 C 107.519531 44.390625 106.691406 43.949219 107.414062 44.832031 C 108.136719 45.714844 108.578125 45.539062 108.9375 45.890625 C 109.285156 46.242188 108.582031 46.777344 108.9375 46.953125 C 109.285156 47.128906 108.402344 47.570312 109.726562 46.953125 C 111.058594 46.332031 110.085938 47.214844 111.058594 46.332031 C 112.03125 45.449219 111.945312 46.242188 112.03125 45.449219 C 112.121094 44.652344 112.652344 44.832031 112.03125 44.210938 C 111.40625 43.59375 111.230469 43.503906 110.789062 42.976562 Z M 110.789062 42.976562 " fill-opacity="1" fill-rule="nonzero"/></g></g></g></g></svg>